G04 #@! TF.FileFunction,Copper,L2,Bot,Signal*
%FSLAX46Y46*%
G04 Gerber Fmt 4.6, Leading zero omitted, Abs format (unit mm)*
G04 Created by KiCad (PCBNEW 4.0.2-stable) date Sunday, 21 August 2016 'amt' 04:24:01*
%MOMM*%
G01*
G04 APERTURE LIST*
%ADD10C,0.100000*%
%ADD11O,2.499360X1.501140*%
%ADD12R,3.500120X3.500120*%
%ADD13C,1.300000*%
%ADD14R,1.300000X1.300000*%
%ADD15R,1.200000X1.200000*%
%ADD16C,1.200000*%
%ADD17R,1.900000X2.000000*%
%ADD18C,1.900000*%
%ADD19O,2.524000X1.524000*%
%ADD20R,1.727200X1.727200*%
%ADD21O,1.727200X1.727200*%
%ADD22O,1.600000X1.600000*%
%ADD23C,1.397000*%
%ADD24C,2.540000*%
%ADD25C,1.501140*%
%ADD26C,0.250000*%
G04 APERTURE END LIST*
D10*
D11*
X92710000Y-77470000D03*
X92710000Y-74930000D03*
X92710000Y-80010000D03*
X104140000Y-77470000D03*
X104140000Y-74930000D03*
X104140000Y-80010000D03*
D12*
X71120000Y-82400140D03*
X71120000Y-76400660D03*
X66421000Y-79400400D03*
D13*
X83820000Y-78700000D03*
D14*
X83820000Y-76200000D03*
D13*
X83820000Y-88860000D03*
D14*
X83820000Y-86360000D03*
D15*
X92710000Y-87630000D03*
D16*
X95210000Y-87630000D03*
D13*
X104140000Y-90130000D03*
D14*
X104140000Y-87630000D03*
D15*
X64770000Y-114300000D03*
D16*
X67270000Y-114300000D03*
D15*
X72390000Y-114300000D03*
D16*
X74890000Y-114300000D03*
D17*
X60960000Y-87630000D03*
D18*
X63500000Y-87630000D03*
D19*
X116840000Y-90170000D03*
X116840000Y-92710000D03*
X116840000Y-95250000D03*
X116840000Y-97790000D03*
X116840000Y-100330000D03*
X132080000Y-100330000D03*
X132080000Y-97790000D03*
X132080000Y-95250000D03*
X132080000Y-92710000D03*
X132080000Y-90170000D03*
X116840000Y-104140000D03*
X116840000Y-106680000D03*
X116840000Y-109220000D03*
X116840000Y-111760000D03*
X116840000Y-114300000D03*
X132080000Y-114300000D03*
X132080000Y-111760000D03*
X132080000Y-109220000D03*
X132080000Y-106680000D03*
X132080000Y-104140000D03*
D20*
X66040000Y-97790000D03*
D21*
X68580000Y-97790000D03*
X66040000Y-100330000D03*
X68580000Y-100330000D03*
X66040000Y-102870000D03*
X68580000Y-102870000D03*
X66040000Y-105410000D03*
X68580000Y-105410000D03*
D22*
X97790000Y-124460000D03*
X95250000Y-124460000D03*
X92710000Y-124460000D03*
X90170000Y-124460000D03*
X87630000Y-124460000D03*
X85090000Y-124460000D03*
X82550000Y-124460000D03*
X80010000Y-124460000D03*
X77470000Y-124460000D03*
X74930000Y-124460000D03*
X72390000Y-124460000D03*
X69850000Y-124460000D03*
X67310000Y-124460000D03*
X64770000Y-124460000D03*
X64770000Y-132080000D03*
X67310000Y-132080000D03*
X69850000Y-132080000D03*
X72390000Y-132080000D03*
X74930000Y-132080000D03*
X77470000Y-132080000D03*
X80010000Y-132080000D03*
X82550000Y-132080000D03*
X85090000Y-132080000D03*
X87630000Y-132080000D03*
X90170000Y-132080000D03*
X92710000Y-132080000D03*
X95250000Y-132080000D03*
X97790000Y-132080000D03*
D23*
X67945000Y-87630000D03*
X76835000Y-87630000D03*
X97790000Y-97155000D03*
X97790000Y-106045000D03*
X137160000Y-99695000D03*
X137160000Y-90805000D03*
X111760000Y-90805000D03*
X111760000Y-99695000D03*
X111760000Y-113665000D03*
X111760000Y-104775000D03*
X137160000Y-104775000D03*
X137160000Y-113665000D03*
X93980000Y-106045000D03*
X93980000Y-97155000D03*
X60960000Y-97155000D03*
X60960000Y-106045000D03*
D22*
X133350000Y-74930000D03*
X130810000Y-74930000D03*
X128270000Y-74930000D03*
X125730000Y-74930000D03*
X123190000Y-74930000D03*
X120650000Y-74930000D03*
X118110000Y-74930000D03*
X115570000Y-74930000D03*
X115570000Y-82550000D03*
X118110000Y-82550000D03*
X120650000Y-82550000D03*
X123190000Y-82550000D03*
X125730000Y-82550000D03*
X128270000Y-82550000D03*
X130810000Y-82550000D03*
X133350000Y-82550000D03*
X133350000Y-121920000D03*
X130810000Y-121920000D03*
X128270000Y-121920000D03*
X125730000Y-121920000D03*
X123190000Y-121920000D03*
X120650000Y-121920000D03*
X118110000Y-121920000D03*
X115570000Y-121920000D03*
X115570000Y-129540000D03*
X118110000Y-129540000D03*
X120650000Y-129540000D03*
X123190000Y-129540000D03*
X125730000Y-129540000D03*
X128270000Y-129540000D03*
X130810000Y-129540000D03*
X133350000Y-129540000D03*
D24*
X102870000Y-118110000D03*
X92710000Y-113030000D03*
D25*
X73560940Y-119380000D03*
X68679060Y-119380000D03*
D26*
X137160000Y-104775000D02*
X137160000Y-99695000D01*
X82785400Y-79734600D02*
X83820000Y-78700000D01*
X82785400Y-87825400D02*
X82785400Y-79734600D01*
X83820000Y-88860000D02*
X82785400Y-87825400D01*
X68120300Y-77275000D02*
X66421000Y-77275000D01*
X68994600Y-76400700D02*
X68120300Y-77275000D01*
X71120000Y-76400700D02*
X68994600Y-76400700D01*
X66421000Y-79400400D02*
X66421000Y-77275000D01*
X92710000Y-77470000D02*
X92710000Y-78595900D01*
X100672200Y-74930000D02*
X95210000Y-80392200D01*
X104140000Y-74930000D02*
X100672200Y-74930000D01*
X93413700Y-78595900D02*
X95210000Y-80392200D01*
X92710000Y-78595900D02*
X93413700Y-78595900D01*
X95210000Y-80392200D02*
X95210000Y-87630000D01*
X64770000Y-114300000D02*
X64770000Y-113324700D01*
X68580000Y-97790000D02*
X68580000Y-99028900D01*
X67899400Y-110784700D02*
X67310000Y-110784700D01*
X71414700Y-114300000D02*
X67899400Y-110784700D01*
X64770000Y-113324700D02*
X67310000Y-110784700D01*
X68066600Y-99028900D02*
X68580000Y-99028900D01*
X67310000Y-99785500D02*
X68066600Y-99028900D01*
X67310000Y-110784700D02*
X67310000Y-99785500D01*
X72390000Y-114300000D02*
X71414700Y-114300000D01*
X104815000Y-90805000D02*
X111760000Y-90805000D01*
X104140000Y-90130000D02*
X104815000Y-90805000D01*
X81185300Y-124094700D02*
X81185300Y-124460000D01*
X92250000Y-113030000D02*
X81185300Y-124094700D01*
X92710000Y-113030000D02*
X92250000Y-113030000D01*
X80010000Y-124460000D02*
X80597700Y-124460000D01*
X80597700Y-124460000D02*
X81185300Y-124460000D01*
X80597700Y-128952400D02*
X82550000Y-130904700D01*
X80597700Y-124460000D02*
X80597700Y-128952400D01*
X82550000Y-132080000D02*
X82550000Y-130904700D01*
X115570000Y-121920000D02*
X115570000Y-120744700D01*
X116745300Y-122285300D02*
X116745300Y-121920000D01*
X122824700Y-128364700D02*
X116745300Y-122285300D01*
X123746800Y-128364700D02*
X122824700Y-128364700D01*
X124554700Y-129172600D02*
X123746800Y-128364700D01*
X124554700Y-129540000D02*
X124554700Y-129172600D01*
X125730000Y-129540000D02*
X124554700Y-129540000D01*
X115570000Y-121920000D02*
X116745300Y-121920000D01*
X111760000Y-116934700D02*
X111760000Y-113665000D01*
X115570000Y-120744700D02*
X111760000Y-116934700D01*
X61692100Y-86254700D02*
X66421000Y-81525800D01*
X60960000Y-86254700D02*
X61692100Y-86254700D01*
X66421000Y-79400400D02*
X66421000Y-81525800D01*
X60960000Y-87630000D02*
X60960000Y-86254700D01*
X79445500Y-76200000D02*
X73245400Y-82400100D01*
X83820000Y-76200000D02*
X79445500Y-76200000D01*
X71120000Y-82400100D02*
X73245400Y-82400100D01*
X134576700Y-84952000D02*
X133350000Y-83725300D01*
X134576700Y-127138000D02*
X134576700Y-84952000D01*
X133350000Y-128364700D02*
X134576700Y-127138000D01*
X133350000Y-129540000D02*
X133350000Y-128364700D01*
X133350000Y-82550000D02*
X133350000Y-83725300D01*
X83820000Y-86360000D02*
X84845300Y-86360000D01*
X92710000Y-86360000D02*
X84845300Y-86360000D01*
X92710000Y-87630000D02*
X92710000Y-86360000D01*
X92710000Y-86360000D02*
X92710000Y-80010000D01*
X116934700Y-82184700D02*
X116934700Y-82550000D01*
X114760000Y-80010000D02*
X116934700Y-82184700D01*
X104140000Y-80010000D02*
X114760000Y-80010000D01*
X118110000Y-82550000D02*
X116934700Y-82550000D01*
X118110000Y-129540000D02*
X116934700Y-129540000D01*
X96599400Y-98345600D02*
X96599400Y-125635200D01*
X97790000Y-97155000D02*
X96599400Y-98345600D01*
X116934700Y-129907300D02*
X116934700Y-129540000D01*
X116108000Y-130734000D02*
X116934700Y-129907300D01*
X101698200Y-130734000D02*
X116108000Y-130734000D01*
X96599400Y-125635200D02*
X101698200Y-130734000D01*
X82550000Y-124460000D02*
X83725300Y-124460000D01*
X83820000Y-126456000D02*
X84588000Y-125688000D01*
X83820000Y-132550800D02*
X83820000Y-126456000D01*
X83051300Y-133319500D02*
X83820000Y-132550800D01*
X82057500Y-133319500D02*
X83051300Y-133319500D01*
X81185300Y-132447300D02*
X82057500Y-133319500D01*
X81185300Y-132080000D02*
X81185300Y-132447300D01*
X96546600Y-125688000D02*
X84588000Y-125688000D01*
X96599400Y-125635200D02*
X96546600Y-125688000D01*
X83725300Y-124825300D02*
X83725300Y-124460000D01*
X84588000Y-125688000D02*
X83725300Y-124825300D01*
X80010000Y-132080000D02*
X81185300Y-132080000D01*
X104140000Y-77470000D02*
X104140000Y-78595900D01*
X93980000Y-98815300D02*
X93980000Y-106045000D01*
X104140000Y-88655300D02*
X93980000Y-98815300D01*
X103415600Y-78595900D02*
X104140000Y-78595900D01*
X102462900Y-79548600D02*
X103415600Y-78595900D01*
X102462900Y-84927600D02*
X102462900Y-79548600D01*
X104140000Y-86604700D02*
X102462900Y-84927600D01*
X104140000Y-87630000D02*
X104140000Y-86604700D01*
X104140000Y-87630000D02*
X104140000Y-88655300D01*
X67270000Y-117970900D02*
X67270000Y-114300000D01*
X68679100Y-119380000D02*
X67270000Y-117970900D01*
X77470000Y-124460000D02*
X77470000Y-123284700D01*
X77465600Y-123284700D02*
X73560900Y-119380000D01*
X77470000Y-123284700D02*
X77465600Y-123284700D01*
X74890000Y-118050900D02*
X73560900Y-119380000D01*
X74890000Y-114300000D02*
X74890000Y-118050900D01*
X125730000Y-74930000D02*
X125730000Y-76105300D01*
X116840000Y-90170000D02*
X118477300Y-90170000D01*
X121920000Y-86727300D02*
X118477300Y-90170000D01*
X121920000Y-79915300D02*
X121920000Y-86727300D01*
X125730000Y-76105300D02*
X121920000Y-79915300D01*
X124460000Y-86727300D02*
X118477300Y-92710000D01*
X124460000Y-79915300D02*
X124460000Y-86727300D01*
X128270000Y-76105300D02*
X124460000Y-79915300D01*
X128270000Y-74930000D02*
X128270000Y-76105300D01*
X116840000Y-92710000D02*
X118477300Y-92710000D01*
X115202700Y-96252300D02*
X115202700Y-95250000D01*
X111760000Y-99695000D02*
X115202700Y-96252300D01*
X116840000Y-95250000D02*
X115202700Y-95250000D01*
X127000000Y-89267300D02*
X118477300Y-97790000D01*
X127000000Y-79915300D02*
X127000000Y-89267300D01*
X130810000Y-76105300D02*
X127000000Y-79915300D01*
X130810000Y-74930000D02*
X130810000Y-76105300D01*
X116840000Y-97790000D02*
X118477300Y-97790000D01*
X133717300Y-87850200D02*
X133717300Y-100330000D01*
X132159400Y-86292300D02*
X133717300Y-87850200D01*
X132159400Y-77295900D02*
X132159400Y-86292300D01*
X133350000Y-76105300D02*
X132159400Y-77295900D01*
X133350000Y-74930000D02*
X133350000Y-76105300D01*
X132080000Y-100330000D02*
X133717300Y-100330000D01*
X130442700Y-84092600D02*
X130442700Y-97790000D01*
X130810000Y-83725300D02*
X130442700Y-84092600D01*
X130810000Y-82550000D02*
X130810000Y-83725300D01*
X132080000Y-97790000D02*
X130442700Y-97790000D01*
X119448800Y-105111500D02*
X118477300Y-104140000D01*
X119448800Y-122400600D02*
X119448800Y-105111500D01*
X120191800Y-123143600D02*
X119448800Y-122400600D01*
X123698400Y-123143600D02*
X120191800Y-123143600D01*
X124554700Y-122287300D02*
X123698400Y-123143600D01*
X124554700Y-121920000D02*
X124554700Y-122287300D01*
X125730000Y-121920000D02*
X124554700Y-121920000D01*
X116840000Y-104140000D02*
X118477300Y-104140000D01*
X133717300Y-120377400D02*
X133717300Y-114300000D01*
X133350000Y-120744700D02*
X133717300Y-120377400D01*
X132080000Y-114300000D02*
X133717300Y-114300000D01*
X133350000Y-121920000D02*
X133350000Y-120744700D01*
X129629100Y-112573600D02*
X130442700Y-111760000D01*
X129629100Y-127183800D02*
X129629100Y-112573600D01*
X130810000Y-128364700D02*
X129629100Y-127183800D01*
X130810000Y-129540000D02*
X130810000Y-128364700D01*
X132080000Y-111760000D02*
X130442700Y-111760000D01*
X123190000Y-113932700D02*
X130442700Y-106680000D01*
X123190000Y-121920000D02*
X123190000Y-113932700D01*
X132080000Y-106680000D02*
X130442700Y-106680000D01*
X120650000Y-113932700D02*
X130442700Y-104140000D01*
X120650000Y-121920000D02*
X120650000Y-113932700D01*
X132080000Y-104140000D02*
X130442700Y-104140000D01*
X67278900Y-97325300D02*
X67278900Y-97790000D01*
X68053100Y-96551100D02*
X67278900Y-97325300D01*
X78623300Y-96551100D02*
X68053100Y-96551100D01*
X95250000Y-113177800D02*
X78623300Y-96551100D01*
X95250000Y-124460000D02*
X95250000Y-113177800D01*
X66040000Y-97790000D02*
X67278900Y-97790000D01*
X65436100Y-101631100D02*
X66040000Y-101631100D01*
X60960000Y-97155000D02*
X65436100Y-101631100D01*
X66040000Y-102870000D02*
X66040000Y-101631100D01*
X97790000Y-123190000D02*
X97790000Y-124460000D01*
X102870000Y-118110000D02*
X97790000Y-123190000D01*
X102870000Y-111125000D02*
X102870000Y-118110000D01*
X97790000Y-106045000D02*
X102870000Y-111125000D01*
X128270000Y-98696600D02*
X128270000Y-82550000D01*
X132200100Y-102626700D02*
X128270000Y-98696600D01*
X132675200Y-102626700D02*
X132200100Y-102626700D01*
X133721500Y-103673000D02*
X132675200Y-102626700D01*
X133721500Y-107155100D02*
X133721500Y-103673000D01*
X132926600Y-107950000D02*
X133721500Y-107155100D01*
X131186800Y-107950000D02*
X132926600Y-107950000D01*
X127067700Y-112069100D02*
X131186800Y-107950000D01*
X127067700Y-127162400D02*
X127067700Y-112069100D01*
X128270000Y-128364700D02*
X127067700Y-127162400D01*
X128270000Y-129540000D02*
X128270000Y-128364700D01*
X120284700Y-128364700D02*
X120650000Y-128364700D01*
X110652500Y-118732500D02*
X120284700Y-128364700D01*
X110652500Y-93722800D02*
X110652500Y-118732500D01*
X120650000Y-83725300D02*
X110652500Y-93722800D01*
X120650000Y-82550000D02*
X120650000Y-83725300D01*
X120650000Y-129540000D02*
X120650000Y-128364700D01*
M02*
