G04 #@! TF.FileFunction,Copper,L1,Top,Signal*
%FSLAX46Y46*%
G04 Gerber Fmt 4.6, Leading zero omitted, Abs format (unit mm)*
G04 Created by KiCad (PCBNEW 4.0.2-stable) date Sunday, 21 August 2016 'amt' 04:24:01*
%MOMM*%
G01*
G04 APERTURE LIST*
%ADD10C,0.100000*%
%ADD11O,2.499360X1.501140*%
%ADD12R,3.500120X3.500120*%
%ADD13C,1.300000*%
%ADD14R,1.300000X1.300000*%
%ADD15R,1.200000X1.200000*%
%ADD16C,1.200000*%
%ADD17R,1.900000X2.000000*%
%ADD18C,1.900000*%
%ADD19O,2.524000X1.524000*%
%ADD20R,1.727200X1.727200*%
%ADD21O,1.727200X1.727200*%
%ADD22O,1.600000X1.600000*%
%ADD23C,1.397000*%
%ADD24C,2.540000*%
%ADD25C,1.501140*%
%ADD26C,0.250000*%
G04 APERTURE END LIST*
D10*
D11*
X92710000Y-77470000D03*
X92710000Y-74930000D03*
X92710000Y-80010000D03*
X104140000Y-77470000D03*
X104140000Y-74930000D03*
X104140000Y-80010000D03*
D12*
X71120000Y-82400140D03*
X71120000Y-76400660D03*
X66421000Y-79400400D03*
D13*
X83820000Y-78700000D03*
D14*
X83820000Y-76200000D03*
D13*
X83820000Y-88860000D03*
D14*
X83820000Y-86360000D03*
D15*
X92710000Y-87630000D03*
D16*
X95210000Y-87630000D03*
D13*
X104140000Y-90130000D03*
D14*
X104140000Y-87630000D03*
D15*
X64770000Y-114300000D03*
D16*
X67270000Y-114300000D03*
D15*
X72390000Y-114300000D03*
D16*
X74890000Y-114300000D03*
D17*
X60960000Y-87630000D03*
D18*
X63500000Y-87630000D03*
D19*
X116840000Y-90170000D03*
X116840000Y-92710000D03*
X116840000Y-95250000D03*
X116840000Y-97790000D03*
X116840000Y-100330000D03*
X132080000Y-100330000D03*
X132080000Y-97790000D03*
X132080000Y-95250000D03*
X132080000Y-92710000D03*
X132080000Y-90170000D03*
X116840000Y-104140000D03*
X116840000Y-106680000D03*
X116840000Y-109220000D03*
X116840000Y-111760000D03*
X116840000Y-114300000D03*
X132080000Y-114300000D03*
X132080000Y-111760000D03*
X132080000Y-109220000D03*
X132080000Y-106680000D03*
X132080000Y-104140000D03*
D20*
X66040000Y-97790000D03*
D21*
X68580000Y-97790000D03*
X66040000Y-100330000D03*
X68580000Y-100330000D03*
X66040000Y-102870000D03*
X68580000Y-102870000D03*
X66040000Y-105410000D03*
X68580000Y-105410000D03*
D22*
X97790000Y-124460000D03*
X95250000Y-124460000D03*
X92710000Y-124460000D03*
X90170000Y-124460000D03*
X87630000Y-124460000D03*
X85090000Y-124460000D03*
X82550000Y-124460000D03*
X80010000Y-124460000D03*
X77470000Y-124460000D03*
X74930000Y-124460000D03*
X72390000Y-124460000D03*
X69850000Y-124460000D03*
X67310000Y-124460000D03*
X64770000Y-124460000D03*
X64770000Y-132080000D03*
X67310000Y-132080000D03*
X69850000Y-132080000D03*
X72390000Y-132080000D03*
X74930000Y-132080000D03*
X77470000Y-132080000D03*
X80010000Y-132080000D03*
X82550000Y-132080000D03*
X85090000Y-132080000D03*
X87630000Y-132080000D03*
X90170000Y-132080000D03*
X92710000Y-132080000D03*
X95250000Y-132080000D03*
X97790000Y-132080000D03*
D23*
X67945000Y-87630000D03*
X76835000Y-87630000D03*
X97790000Y-97155000D03*
X97790000Y-106045000D03*
X137160000Y-99695000D03*
X137160000Y-90805000D03*
X111760000Y-90805000D03*
X111760000Y-99695000D03*
X111760000Y-113665000D03*
X111760000Y-104775000D03*
X137160000Y-104775000D03*
X137160000Y-113665000D03*
X93980000Y-106045000D03*
X93980000Y-97155000D03*
X60960000Y-97155000D03*
X60960000Y-106045000D03*
D22*
X133350000Y-74930000D03*
X130810000Y-74930000D03*
X128270000Y-74930000D03*
X125730000Y-74930000D03*
X123190000Y-74930000D03*
X120650000Y-74930000D03*
X118110000Y-74930000D03*
X115570000Y-74930000D03*
X115570000Y-82550000D03*
X118110000Y-82550000D03*
X120650000Y-82550000D03*
X123190000Y-82550000D03*
X125730000Y-82550000D03*
X128270000Y-82550000D03*
X130810000Y-82550000D03*
X133350000Y-82550000D03*
X133350000Y-121920000D03*
X130810000Y-121920000D03*
X128270000Y-121920000D03*
X125730000Y-121920000D03*
X123190000Y-121920000D03*
X120650000Y-121920000D03*
X118110000Y-121920000D03*
X115570000Y-121920000D03*
X115570000Y-129540000D03*
X118110000Y-129540000D03*
X120650000Y-129540000D03*
X123190000Y-129540000D03*
X125730000Y-129540000D03*
X128270000Y-129540000D03*
X130810000Y-129540000D03*
X133350000Y-129540000D03*
D24*
X102870000Y-118110000D03*
X92710000Y-113030000D03*
D25*
X73560940Y-119380000D03*
X68679060Y-119380000D03*
D26*
X115570000Y-74930000D02*
X104140000Y-74930000D01*
X61034200Y-89005300D02*
X60960000Y-89005300D01*
X68580000Y-96551100D02*
X61034200Y-89005300D01*
X68580000Y-97790000D02*
X68580000Y-96551100D01*
X60960000Y-87630000D02*
X60960000Y-89005300D01*
X71120000Y-76400700D02*
X73245400Y-76400700D01*
X83820000Y-78085000D02*
X83820000Y-78700000D01*
X84435000Y-77470000D02*
X83820000Y-78085000D01*
X92710000Y-77470000D02*
X84435000Y-77470000D01*
X74929700Y-78085000D02*
X73245400Y-76400700D01*
X83820000Y-78085000D02*
X74929700Y-78085000D01*
X80010000Y-122895300D02*
X72390000Y-115275300D01*
X80010000Y-124460000D02*
X80010000Y-122895300D01*
X72390000Y-114300000D02*
X72390000Y-115275300D01*
X97710000Y-90130000D02*
X95210000Y-87630000D01*
X104140000Y-90130000D02*
X97710000Y-90130000D01*
X111125000Y-113030000D02*
X111760000Y-113665000D01*
X92710000Y-113030000D02*
X111125000Y-113030000D01*
X125730000Y-82550000D02*
X124554700Y-82550000D01*
X113554700Y-89010300D02*
X121866000Y-89010300D01*
X111760000Y-90805000D02*
X113554700Y-89010300D01*
X124554700Y-86321600D02*
X121866000Y-89010300D01*
X124554700Y-82550000D02*
X124554700Y-86321600D01*
X136583600Y-99118600D02*
X137160000Y-99695000D01*
X131267300Y-99118600D02*
X136583600Y-99118600D01*
X121866000Y-89717300D02*
X131267300Y-99118600D01*
X121866000Y-89010300D02*
X121866000Y-89717300D01*
X86115300Y-74930000D02*
X84845300Y-76200000D01*
X92710000Y-74930000D02*
X86115300Y-74930000D01*
X83820000Y-76200000D02*
X84845300Y-76200000D01*
X92765300Y-73748800D02*
X92710000Y-73804100D01*
X126230100Y-73748800D02*
X92765300Y-73748800D01*
X127000000Y-74518700D02*
X126230100Y-73748800D01*
X127000000Y-75392000D02*
X127000000Y-74518700D01*
X132982700Y-81374700D02*
X127000000Y-75392000D01*
X133350000Y-81374700D02*
X132982700Y-81374700D01*
X133350000Y-82550000D02*
X133350000Y-81374700D01*
X92710000Y-74930000D02*
X92710000Y-73804100D01*
X81524700Y-87630000D02*
X82794700Y-86360000D01*
X76835000Y-87630000D02*
X81524700Y-87630000D01*
X83820000Y-86360000D02*
X82794700Y-86360000D01*
X80010000Y-132080000D02*
X77470000Y-132080000D01*
X104140000Y-80010000D02*
X92710000Y-80010000D01*
X97790000Y-93685300D02*
X92710000Y-88605300D01*
X97790000Y-97155000D02*
X97790000Y-93685300D01*
X92710000Y-87630000D02*
X92710000Y-88605300D01*
X66040000Y-105410000D02*
X66040000Y-104171100D01*
X66040000Y-100330000D02*
X66040000Y-101568900D01*
X66553400Y-101568900D02*
X66040000Y-101568900D01*
X67310000Y-102325500D02*
X66553400Y-101568900D01*
X67310000Y-104140000D02*
X67310000Y-102325500D01*
X67278900Y-104171100D02*
X67310000Y-104140000D01*
X66040000Y-104171100D02*
X67278900Y-104171100D01*
X92075000Y-104140000D02*
X93980000Y-106045000D01*
X67310000Y-104140000D02*
X92075000Y-104140000D01*
X64166100Y-106045000D02*
X64801100Y-105410000D01*
X60960000Y-106045000D02*
X64166100Y-106045000D01*
X66040000Y-105410000D02*
X64801100Y-105410000D01*
X73754700Y-124093600D02*
X73754700Y-124460000D01*
X69041100Y-119380000D02*
X73754700Y-124093600D01*
X68679100Y-119380000D02*
X69041100Y-119380000D01*
X74930000Y-124460000D02*
X73754700Y-124460000D01*
X67945000Y-87630000D02*
X63500000Y-87630000D01*
X133717300Y-94247700D02*
X133717300Y-95250000D01*
X137160000Y-90805000D02*
X133717300Y-94247700D01*
X132080000Y-95250000D02*
X133717300Y-95250000D01*
X133717300Y-88792000D02*
X133717300Y-92710000D01*
X132080000Y-87154700D02*
X133717300Y-88792000D01*
X132080000Y-82132700D02*
X132080000Y-87154700D01*
X126052600Y-76105300D02*
X132080000Y-82132700D01*
X125173200Y-76105300D02*
X126052600Y-76105300D01*
X124365300Y-75297400D02*
X125173200Y-76105300D01*
X124365300Y-74930000D02*
X124365300Y-75297400D01*
X123190000Y-74930000D02*
X124365300Y-74930000D01*
X132080000Y-92710000D02*
X133717300Y-92710000D01*
X129453300Y-89180600D02*
X130442700Y-90170000D01*
X129453300Y-82059500D02*
X129453300Y-89180600D01*
X123499100Y-76105300D02*
X129453300Y-82059500D01*
X122633200Y-76105300D02*
X123499100Y-76105300D01*
X121825300Y-75297400D02*
X122633200Y-76105300D01*
X121825300Y-74930000D02*
X121825300Y-75297400D01*
X120650000Y-74930000D02*
X121825300Y-74930000D01*
X132080000Y-90170000D02*
X130442700Y-90170000D01*
X115202700Y-112232900D02*
X115202700Y-106680000D01*
X115999800Y-113030000D02*
X115202700Y-112232900D01*
X118572000Y-113030000D02*
X115999800Y-113030000D01*
X127094700Y-121552700D02*
X118572000Y-113030000D01*
X127094700Y-121920000D02*
X127094700Y-121552700D01*
X128270000Y-121920000D02*
X127094700Y-121920000D01*
X116840000Y-106680000D02*
X115202700Y-106680000D01*
X119879900Y-110622600D02*
X118477300Y-109220000D01*
X134117600Y-110622600D02*
X119879900Y-110622600D01*
X137160000Y-113665000D02*
X134117600Y-110622600D01*
X116840000Y-109220000D02*
X118477300Y-109220000D01*
X119842000Y-111760000D02*
X116840000Y-111760000D01*
X129634700Y-121552700D02*
X119842000Y-111760000D01*
X129634700Y-121920000D02*
X129634700Y-121552700D01*
X130810000Y-121920000D02*
X129634700Y-121920000D01*
X126691400Y-105468700D02*
X130442700Y-109220000D01*
X112453700Y-105468700D02*
X126691400Y-105468700D01*
X111760000Y-104775000D02*
X112453700Y-105468700D01*
X132080000Y-109220000D02*
X130442700Y-109220000D01*
X88265000Y-102870000D02*
X68580000Y-102870000D01*
X93980000Y-97155000D02*
X88265000Y-102870000D01*
X72852000Y-105410000D02*
X68580000Y-105410000D01*
X91534700Y-124092700D02*
X72852000Y-105410000D01*
X91534700Y-124460000D02*
X91534700Y-124092700D01*
X92710000Y-124460000D02*
X91534700Y-124460000D01*
X123190000Y-129540000D02*
X122014700Y-129540000D01*
X64770000Y-124460000D02*
X65945300Y-124460000D01*
X117746600Y-124904500D02*
X112865800Y-124904500D01*
X122014700Y-129172600D02*
X117746600Y-124904500D01*
X122014700Y-129540000D02*
X122014700Y-129172600D01*
X65945300Y-124825300D02*
X65945300Y-124460000D01*
X66774800Y-125654800D02*
X65945300Y-124825300D01*
X112115500Y-125654800D02*
X66774800Y-125654800D01*
X112865800Y-124904500D02*
X112115500Y-125654800D01*
X122014700Y-82915300D02*
X122014700Y-82550000D01*
X119971000Y-84959000D02*
X122014700Y-82915300D01*
X116075800Y-84959000D02*
X119971000Y-84959000D01*
X110639500Y-90395300D02*
X116075800Y-84959000D01*
X110639500Y-107110600D02*
X110639500Y-90395300D01*
X112865800Y-109336900D02*
X110639500Y-107110600D01*
X112865800Y-124904500D02*
X112865800Y-109336900D01*
X123190000Y-82550000D02*
X122014700Y-82550000D01*
X116745300Y-82184700D02*
X116745300Y-82550000D01*
X117555300Y-81374700D02*
X116745300Y-82184700D01*
X126286800Y-81374700D02*
X117555300Y-81374700D01*
X127094700Y-82182600D02*
X126286800Y-81374700D01*
X127094700Y-82550000D02*
X127094700Y-82182600D01*
X128270000Y-82550000D02*
X127094700Y-82550000D01*
X115570000Y-82550000D02*
X116745300Y-82550000D01*
X71025300Y-132445300D02*
X71025300Y-132080000D01*
X71881700Y-133301700D02*
X71025300Y-132445300D01*
X123700300Y-133301700D02*
X71881700Y-133301700D01*
X127094700Y-129907300D02*
X123700300Y-133301700D01*
X127094700Y-129540000D02*
X127094700Y-129907300D01*
X128270000Y-129540000D02*
X127094700Y-129540000D01*
X69850000Y-132080000D02*
X71025300Y-132080000D01*
X120650000Y-129540000D02*
X119474700Y-129540000D01*
X72390000Y-132080000D02*
X73565300Y-132080000D01*
X119474700Y-129907400D02*
X119474700Y-129540000D01*
X118666800Y-130715300D02*
X119474700Y-129907400D01*
X74564700Y-130715300D02*
X118666800Y-130715300D01*
X73565300Y-131714700D02*
X74564700Y-130715300D01*
X73565300Y-132080000D02*
X73565300Y-131714700D01*
M02*
