M48
;DRILL file {KiCad 4.0.2-stable} date Sunday, 21 August 2016 'amt' 04:26:51
;FORMAT={-:-/ absolute / metric / decimal}
FMAT,2
METRIC,TZ
T1C0.700
T2C0.800
T3C0.800
T4C0.813
T5C1.001
T6C1.016
T7C1.143
%
G90
G05
M71
T1
X64.77Y-114.3
X67.27Y-114.3
X72.39Y-114.3
X74.89Y-114.3
X92.71Y-87.63
X95.21Y-87.63
T2
X64.77Y-124.46
X64.77Y-132.08
X67.31Y-124.46
X67.31Y-132.08
X69.85Y-124.46
X69.85Y-132.08
X72.39Y-124.46
X72.39Y-132.08
X74.93Y-124.46
X74.93Y-132.08
X77.47Y-124.46
X77.47Y-132.08
X80.01Y-124.46
X80.01Y-132.08
X82.55Y-124.46
X82.55Y-132.08
X83.82Y-76.2
X83.82Y-78.7
X83.82Y-86.36
X83.82Y-88.86
X85.09Y-124.46
X85.09Y-132.08
X87.63Y-124.46
X87.63Y-132.08
X90.17Y-124.46
X90.17Y-132.08
X92.71Y-124.46
X92.71Y-132.08
X95.25Y-124.46
X95.25Y-132.08
X97.79Y-124.46
X97.79Y-132.08
X104.14Y-87.63
X104.14Y-90.13
X115.57Y-74.93
X115.57Y-82.55
X115.57Y-121.92
X115.57Y-129.54
X116.84Y-90.17
X116.84Y-92.71
X116.84Y-95.25
X116.84Y-97.79
X116.84Y-100.33
X116.84Y-104.14
X116.84Y-106.68
X116.84Y-109.22
X116.84Y-111.76
X116.84Y-114.3
X118.11Y-74.93
X118.11Y-82.55
X118.11Y-121.92
X118.11Y-129.54
X120.65Y-74.93
X120.65Y-82.55
X120.65Y-121.92
X120.65Y-129.54
X123.19Y-74.93
X123.19Y-82.55
X123.19Y-121.92
X123.19Y-129.54
X125.73Y-74.93
X125.73Y-82.55
X125.73Y-121.92
X125.73Y-129.54
X128.27Y-74.93
X128.27Y-82.55
X128.27Y-121.92
X128.27Y-129.54
X130.81Y-74.93
X130.81Y-82.55
X130.81Y-121.92
X130.81Y-129.54
X132.08Y-90.17
X132.08Y-92.71
X132.08Y-95.25
X132.08Y-97.79
X132.08Y-100.33
X132.08Y-104.14
X132.08Y-106.68
X132.08Y-109.22
X132.08Y-111.76
X132.08Y-114.3
X133.35Y-74.93
X133.35Y-82.55
X133.35Y-121.92
X133.35Y-129.54
T3
X68.679Y-119.38
X73.561Y-119.38
T4
X60.96Y-97.155
X60.96Y-106.045
X67.945Y-87.63
X76.835Y-87.63
X93.98Y-97.155
X93.98Y-106.045
X97.79Y-97.155
X97.79Y-106.045
X111.76Y-90.805
X111.76Y-99.695
X111.76Y-104.775
X111.76Y-113.665
X137.16Y-90.805
X137.16Y-99.695
X137.16Y-104.775
X137.16Y-113.665
T5
X60.96Y-87.63
X63.5Y-87.63
X92.71Y-74.93
X92.71Y-77.47
X92.71Y-80.01
X104.14Y-74.93
X104.14Y-77.47
X104.14Y-80.01
T6
X66.04Y-97.79
X66.04Y-100.33
X66.04Y-102.87
X66.04Y-105.41
X68.58Y-97.79
X68.58Y-100.33
X68.58Y-102.87
X68.58Y-105.41
T7
X92.71Y-113.03
X102.87Y-118.11
T5
X66.421Y-78.401G85X66.421Y-80.4
G05
X72.119Y-76.401G85X70.121Y-76.401
G05
X72.119Y-82.4G85X70.121Y-82.4
G05
T0
M30
