G04 #@! TF.FileFunction,Legend,Top*
%FSLAX46Y46*%
G04 Gerber Fmt 4.6, Leading zero omitted, Abs format (unit mm)*
G04 Created by KiCad (PCBNEW 4.0.2-stable) date Sunday, 21 August 2016 'amt' 04:24:01*
%MOMM*%
G01*
G04 APERTURE LIST*
%ADD10C,0.100000*%
%ADD11C,0.300000*%
%ADD12C,0.150000*%
%ADD13C,0.254000*%
%ADD14C,0.152400*%
%ADD15O,2.899360X1.901140*%
%ADD16R,3.900120X3.900120*%
%ADD17C,1.700000*%
%ADD18R,1.700000X1.700000*%
%ADD19R,1.600000X1.600000*%
%ADD20C,1.600000*%
%ADD21R,2.300000X2.400000*%
%ADD22C,2.300000*%
%ADD23O,2.924000X1.924000*%
%ADD24R,2.127200X2.127200*%
%ADD25O,2.127200X2.127200*%
%ADD26O,2.000000X2.000000*%
%ADD27C,1.797000*%
%ADD28C,2.940000*%
%ADD29C,1.901140*%
G04 APERTURE END LIST*
D10*
D11*
X141561429Y-84870000D02*
X143061429Y-84870000D01*
X141561429Y-85727143D01*
X143061429Y-85727143D01*
X141632857Y-87012857D02*
X141561429Y-86870000D01*
X141561429Y-86584286D01*
X141632857Y-86441429D01*
X141775714Y-86370000D01*
X142347143Y-86370000D01*
X142490000Y-86441429D01*
X142561429Y-86584286D01*
X142561429Y-86870000D01*
X142490000Y-87012857D01*
X142347143Y-87084286D01*
X142204286Y-87084286D01*
X142061429Y-86370000D01*
X141561429Y-87584286D02*
X142561429Y-88370000D01*
X142561429Y-87584286D02*
X141561429Y-88370000D01*
X142561429Y-88727143D02*
X142561429Y-89298572D01*
X143061429Y-88941429D02*
X141775714Y-88941429D01*
X141632857Y-89012857D01*
X141561429Y-89155715D01*
X141561429Y-89298572D01*
X142347143Y-90298572D02*
X142275714Y-90512858D01*
X142204286Y-90584286D01*
X142061429Y-90655715D01*
X141847143Y-90655715D01*
X141704286Y-90584286D01*
X141632857Y-90512858D01*
X141561429Y-90370000D01*
X141561429Y-89798572D01*
X143061429Y-89798572D01*
X143061429Y-90298572D01*
X142990000Y-90441429D01*
X142918571Y-90512858D01*
X142775714Y-90584286D01*
X142632857Y-90584286D01*
X142490000Y-90512858D01*
X142418571Y-90441429D01*
X142347143Y-90298572D01*
X142347143Y-89798572D01*
X142561429Y-91941429D02*
X141561429Y-91941429D01*
X142561429Y-91298572D02*
X141775714Y-91298572D01*
X141632857Y-91370000D01*
X141561429Y-91512858D01*
X141561429Y-91727143D01*
X141632857Y-91870000D01*
X141704286Y-91941429D01*
X141632857Y-92584286D02*
X141561429Y-92727143D01*
X141561429Y-93012858D01*
X141632857Y-93155715D01*
X141775714Y-93227143D01*
X141847143Y-93227143D01*
X141990000Y-93155715D01*
X142061429Y-93012858D01*
X142061429Y-92798572D01*
X142132857Y-92655715D01*
X142275714Y-92584286D01*
X142347143Y-92584286D01*
X142490000Y-92655715D01*
X142561429Y-92798572D01*
X142561429Y-93012858D01*
X142490000Y-93155715D01*
X141704286Y-95870001D02*
X141632857Y-95798572D01*
X141561429Y-95584286D01*
X141561429Y-95441429D01*
X141632857Y-95227144D01*
X141775714Y-95084286D01*
X141918571Y-95012858D01*
X142204286Y-94941429D01*
X142418571Y-94941429D01*
X142704286Y-95012858D01*
X142847143Y-95084286D01*
X142990000Y-95227144D01*
X143061429Y-95441429D01*
X143061429Y-95584286D01*
X142990000Y-95798572D01*
X142918571Y-95870001D01*
X141561429Y-96727144D02*
X141632857Y-96584286D01*
X141775714Y-96512858D01*
X143061429Y-96512858D01*
X141561429Y-97512858D02*
X141632857Y-97370000D01*
X141704286Y-97298572D01*
X141847143Y-97227143D01*
X142275714Y-97227143D01*
X142418571Y-97298572D01*
X142490000Y-97370000D01*
X142561429Y-97512858D01*
X142561429Y-97727143D01*
X142490000Y-97870000D01*
X142418571Y-97941429D01*
X142275714Y-98012858D01*
X141847143Y-98012858D01*
X141704286Y-97941429D01*
X141632857Y-97870000D01*
X141561429Y-97727143D01*
X141561429Y-97512858D01*
X141632857Y-99298572D02*
X141561429Y-99155715D01*
X141561429Y-98870001D01*
X141632857Y-98727143D01*
X141704286Y-98655715D01*
X141847143Y-98584286D01*
X142275714Y-98584286D01*
X142418571Y-98655715D01*
X142490000Y-98727143D01*
X142561429Y-98870001D01*
X142561429Y-99155715D01*
X142490000Y-99298572D01*
X141561429Y-99941429D02*
X143061429Y-99941429D01*
X142132857Y-100084286D02*
X141561429Y-100512857D01*
X142561429Y-100512857D02*
X141990000Y-99941429D01*
X142561429Y-102155715D02*
X141561429Y-102512858D01*
X142561429Y-102870000D01*
X141561429Y-104227143D02*
X141561429Y-103370000D01*
X141561429Y-103798572D02*
X143061429Y-103798572D01*
X142847143Y-103655715D01*
X142704286Y-103512857D01*
X142632857Y-103370000D01*
X142132857Y-106012857D02*
X142132857Y-107155714D01*
X141704286Y-109870000D02*
X141632857Y-109798571D01*
X141561429Y-109584285D01*
X141561429Y-109441428D01*
X141632857Y-109227143D01*
X141775714Y-109084285D01*
X141918571Y-109012857D01*
X142204286Y-108941428D01*
X142418571Y-108941428D01*
X142704286Y-109012857D01*
X142847143Y-109084285D01*
X142990000Y-109227143D01*
X143061429Y-109441428D01*
X143061429Y-109584285D01*
X142990000Y-109798571D01*
X142918571Y-109870000D01*
X141561429Y-110512857D02*
X143061429Y-110512857D01*
X141561429Y-111155714D02*
X142347143Y-111155714D01*
X142490000Y-111084285D01*
X142561429Y-110941428D01*
X142561429Y-110727143D01*
X142490000Y-110584285D01*
X142418571Y-110512857D01*
X141561429Y-111870000D02*
X142561429Y-111870000D01*
X142275714Y-111870000D02*
X142418571Y-111941428D01*
X142490000Y-112012857D01*
X142561429Y-112155714D01*
X142561429Y-112298571D01*
X141561429Y-112798571D02*
X142561429Y-112798571D01*
X143061429Y-112798571D02*
X142990000Y-112727142D01*
X142918571Y-112798571D01*
X142990000Y-112869999D01*
X143061429Y-112798571D01*
X142918571Y-112798571D01*
X141632857Y-113441428D02*
X141561429Y-113584285D01*
X141561429Y-113870000D01*
X141632857Y-114012857D01*
X141775714Y-114084285D01*
X141847143Y-114084285D01*
X141990000Y-114012857D01*
X142061429Y-113870000D01*
X142061429Y-113655714D01*
X142132857Y-113512857D01*
X142275714Y-113441428D01*
X142347143Y-113441428D01*
X142490000Y-113512857D01*
X142561429Y-113655714D01*
X142561429Y-113870000D01*
X142490000Y-114012857D01*
X142990000Y-116655714D02*
X143061429Y-116512857D01*
X143061429Y-116298571D01*
X142990000Y-116084286D01*
X142847143Y-115941428D01*
X142704286Y-115870000D01*
X142418571Y-115798571D01*
X142204286Y-115798571D01*
X141918571Y-115870000D01*
X141775714Y-115941428D01*
X141632857Y-116084286D01*
X141561429Y-116298571D01*
X141561429Y-116441428D01*
X141632857Y-116655714D01*
X141704286Y-116727143D01*
X142204286Y-116727143D01*
X142204286Y-116441428D01*
X141561429Y-117370000D02*
X142561429Y-117370000D01*
X143061429Y-117370000D02*
X142990000Y-117298571D01*
X142918571Y-117370000D01*
X142990000Y-117441428D01*
X143061429Y-117370000D01*
X142918571Y-117370000D01*
X141561429Y-118298572D02*
X141632857Y-118155714D01*
X141775714Y-118084286D01*
X143061429Y-118084286D01*
X141561429Y-119084286D02*
X141632857Y-118941428D01*
X141775714Y-118870000D01*
X143061429Y-118870000D01*
X141561429Y-119655714D02*
X142561429Y-119655714D01*
X143061429Y-119655714D02*
X142990000Y-119584285D01*
X142918571Y-119655714D01*
X142990000Y-119727142D01*
X143061429Y-119655714D01*
X142918571Y-119655714D01*
X141632857Y-120298571D02*
X141561429Y-120441428D01*
X141561429Y-120727143D01*
X141632857Y-120870000D01*
X141775714Y-120941428D01*
X141847143Y-120941428D01*
X141990000Y-120870000D01*
X142061429Y-120727143D01*
X142061429Y-120512857D01*
X142132857Y-120370000D01*
X142275714Y-120298571D01*
X142347143Y-120298571D01*
X142490000Y-120370000D01*
X142561429Y-120512857D01*
X142561429Y-120727143D01*
X142490000Y-120870000D01*
D12*
X95758000Y-75946000D02*
X94615000Y-75946000D01*
X95758000Y-78994000D02*
X94615000Y-78994000D01*
X94615000Y-82804000D02*
X90932000Y-82804000D01*
X90932000Y-82804000D02*
X90932000Y-72136000D01*
X90932000Y-72136000D02*
X94615000Y-72136000D01*
X95758000Y-82804000D02*
X94615000Y-82804000D01*
X94615000Y-82804000D02*
X94615000Y-72136000D01*
X94615000Y-72136000D02*
X95758000Y-72136000D01*
X95758000Y-77470000D02*
X95758000Y-72136000D01*
X95758000Y-77470000D02*
X95758000Y-82804000D01*
X107188000Y-75946000D02*
X106045000Y-75946000D01*
X107188000Y-78994000D02*
X106045000Y-78994000D01*
X106045000Y-82804000D02*
X102362000Y-82804000D01*
X102362000Y-82804000D02*
X102362000Y-72136000D01*
X102362000Y-72136000D02*
X106045000Y-72136000D01*
X107188000Y-82804000D02*
X106045000Y-82804000D01*
X106045000Y-82804000D02*
X106045000Y-72136000D01*
X106045000Y-72136000D02*
X107188000Y-72136000D01*
X107188000Y-77470000D02*
X107188000Y-72136000D01*
X107188000Y-77470000D02*
X107188000Y-82804000D01*
X75620880Y-72199500D02*
X66619120Y-72199500D01*
X75620880Y-68699380D02*
X66619120Y-68699380D01*
X66619120Y-68699380D02*
X66619120Y-83200240D01*
X66619120Y-83200240D02*
X75620880Y-83200240D01*
X75620880Y-83200240D02*
X75620880Y-68699380D01*
X87569000Y-77525000D02*
X80071000Y-77525000D01*
X87564000Y-77665000D02*
X80076000Y-77665000D01*
X87553000Y-77805000D02*
X84266000Y-77805000D01*
X83374000Y-77805000D02*
X80087000Y-77805000D01*
X87537000Y-77945000D02*
X84476000Y-77945000D01*
X83164000Y-77945000D02*
X80103000Y-77945000D01*
X87516000Y-78085000D02*
X84609000Y-78085000D01*
X83031000Y-78085000D02*
X80124000Y-78085000D01*
X87489000Y-78225000D02*
X84700000Y-78225000D01*
X82940000Y-78225000D02*
X80151000Y-78225000D01*
X87457000Y-78365000D02*
X84762000Y-78365000D01*
X82878000Y-78365000D02*
X80183000Y-78365000D01*
X87419000Y-78505000D02*
X84801000Y-78505000D01*
X82839000Y-78505000D02*
X80221000Y-78505000D01*
X87375000Y-78645000D02*
X84818000Y-78645000D01*
X82822000Y-78645000D02*
X80265000Y-78645000D01*
X87324000Y-78785000D02*
X84816000Y-78785000D01*
X82824000Y-78785000D02*
X80316000Y-78785000D01*
X87268000Y-78925000D02*
X84794000Y-78925000D01*
X82846000Y-78925000D02*
X80372000Y-78925000D01*
X87204000Y-79065000D02*
X84751000Y-79065000D01*
X82889000Y-79065000D02*
X80436000Y-79065000D01*
X87134000Y-79205000D02*
X84683000Y-79205000D01*
X82957000Y-79205000D02*
X80506000Y-79205000D01*
X87056000Y-79345000D02*
X84584000Y-79345000D01*
X83056000Y-79345000D02*
X80584000Y-79345000D01*
X86970000Y-79485000D02*
X84439000Y-79485000D01*
X83201000Y-79485000D02*
X80670000Y-79485000D01*
X86875000Y-79625000D02*
X84200000Y-79625000D01*
X83440000Y-79625000D02*
X80765000Y-79625000D01*
X86770000Y-79765000D02*
X80870000Y-79765000D01*
X86655000Y-79905000D02*
X80985000Y-79905000D01*
X86527000Y-80045000D02*
X81113000Y-80045000D01*
X86386000Y-80185000D02*
X81254000Y-80185000D01*
X86228000Y-80325000D02*
X81412000Y-80325000D01*
X86050000Y-80465000D02*
X81590000Y-80465000D01*
X85847000Y-80605000D02*
X81793000Y-80605000D01*
X85610000Y-80745000D02*
X82030000Y-80745000D01*
X85324000Y-80885000D02*
X82316000Y-80885000D01*
X84952000Y-81025000D02*
X82688000Y-81025000D01*
X84331000Y-81165000D02*
X83309000Y-81165000D01*
X84820000Y-78700000D02*
G75*
G03X84820000Y-78700000I-1000000J0D01*
G01*
X87607500Y-77450000D02*
G75*
G03X87607500Y-77450000I-3787500J0D01*
G01*
X87569000Y-87685000D02*
X80071000Y-87685000D01*
X87564000Y-87825000D02*
X80076000Y-87825000D01*
X87553000Y-87965000D02*
X84266000Y-87965000D01*
X83374000Y-87965000D02*
X80087000Y-87965000D01*
X87537000Y-88105000D02*
X84476000Y-88105000D01*
X83164000Y-88105000D02*
X80103000Y-88105000D01*
X87516000Y-88245000D02*
X84609000Y-88245000D01*
X83031000Y-88245000D02*
X80124000Y-88245000D01*
X87489000Y-88385000D02*
X84700000Y-88385000D01*
X82940000Y-88385000D02*
X80151000Y-88385000D01*
X87457000Y-88525000D02*
X84762000Y-88525000D01*
X82878000Y-88525000D02*
X80183000Y-88525000D01*
X87419000Y-88665000D02*
X84801000Y-88665000D01*
X82839000Y-88665000D02*
X80221000Y-88665000D01*
X87375000Y-88805000D02*
X84818000Y-88805000D01*
X82822000Y-88805000D02*
X80265000Y-88805000D01*
X87324000Y-88945000D02*
X84816000Y-88945000D01*
X82824000Y-88945000D02*
X80316000Y-88945000D01*
X87268000Y-89085000D02*
X84794000Y-89085000D01*
X82846000Y-89085000D02*
X80372000Y-89085000D01*
X87204000Y-89225000D02*
X84751000Y-89225000D01*
X82889000Y-89225000D02*
X80436000Y-89225000D01*
X87134000Y-89365000D02*
X84683000Y-89365000D01*
X82957000Y-89365000D02*
X80506000Y-89365000D01*
X87056000Y-89505000D02*
X84584000Y-89505000D01*
X83056000Y-89505000D02*
X80584000Y-89505000D01*
X86970000Y-89645000D02*
X84439000Y-89645000D01*
X83201000Y-89645000D02*
X80670000Y-89645000D01*
X86875000Y-89785000D02*
X84200000Y-89785000D01*
X83440000Y-89785000D02*
X80765000Y-89785000D01*
X86770000Y-89925000D02*
X80870000Y-89925000D01*
X86655000Y-90065000D02*
X80985000Y-90065000D01*
X86527000Y-90205000D02*
X81113000Y-90205000D01*
X86386000Y-90345000D02*
X81254000Y-90345000D01*
X86228000Y-90485000D02*
X81412000Y-90485000D01*
X86050000Y-90625000D02*
X81590000Y-90625000D01*
X85847000Y-90765000D02*
X81793000Y-90765000D01*
X85610000Y-90905000D02*
X82030000Y-90905000D01*
X85324000Y-91045000D02*
X82316000Y-91045000D01*
X84952000Y-91185000D02*
X82688000Y-91185000D01*
X84331000Y-91325000D02*
X83309000Y-91325000D01*
X84820000Y-88860000D02*
G75*
G03X84820000Y-88860000I-1000000J0D01*
G01*
X87607500Y-87610000D02*
G75*
G03X87607500Y-87610000I-3787500J0D01*
G01*
X91960000Y-86380000D02*
X95960000Y-86380000D01*
X91960000Y-88880000D02*
X95960000Y-88880000D01*
X107889000Y-88955000D02*
X100391000Y-88955000D01*
X107884000Y-89095000D02*
X100396000Y-89095000D01*
X107873000Y-89235000D02*
X104586000Y-89235000D01*
X103694000Y-89235000D02*
X100407000Y-89235000D01*
X107857000Y-89375000D02*
X104796000Y-89375000D01*
X103484000Y-89375000D02*
X100423000Y-89375000D01*
X107836000Y-89515000D02*
X104929000Y-89515000D01*
X103351000Y-89515000D02*
X100444000Y-89515000D01*
X107809000Y-89655000D02*
X105020000Y-89655000D01*
X103260000Y-89655000D02*
X100471000Y-89655000D01*
X107777000Y-89795000D02*
X105082000Y-89795000D01*
X103198000Y-89795000D02*
X100503000Y-89795000D01*
X107739000Y-89935000D02*
X105121000Y-89935000D01*
X103159000Y-89935000D02*
X100541000Y-89935000D01*
X107695000Y-90075000D02*
X105138000Y-90075000D01*
X103142000Y-90075000D02*
X100585000Y-90075000D01*
X107644000Y-90215000D02*
X105136000Y-90215000D01*
X103144000Y-90215000D02*
X100636000Y-90215000D01*
X107588000Y-90355000D02*
X105114000Y-90355000D01*
X103166000Y-90355000D02*
X100692000Y-90355000D01*
X107524000Y-90495000D02*
X105071000Y-90495000D01*
X103209000Y-90495000D02*
X100756000Y-90495000D01*
X107454000Y-90635000D02*
X105003000Y-90635000D01*
X103277000Y-90635000D02*
X100826000Y-90635000D01*
X107376000Y-90775000D02*
X104904000Y-90775000D01*
X103376000Y-90775000D02*
X100904000Y-90775000D01*
X107290000Y-90915000D02*
X104759000Y-90915000D01*
X103521000Y-90915000D02*
X100990000Y-90915000D01*
X107195000Y-91055000D02*
X104520000Y-91055000D01*
X103760000Y-91055000D02*
X101085000Y-91055000D01*
X107090000Y-91195000D02*
X101190000Y-91195000D01*
X106975000Y-91335000D02*
X101305000Y-91335000D01*
X106847000Y-91475000D02*
X101433000Y-91475000D01*
X106706000Y-91615000D02*
X101574000Y-91615000D01*
X106548000Y-91755000D02*
X101732000Y-91755000D01*
X106370000Y-91895000D02*
X101910000Y-91895000D01*
X106167000Y-92035000D02*
X102113000Y-92035000D01*
X105930000Y-92175000D02*
X102350000Y-92175000D01*
X105644000Y-92315000D02*
X102636000Y-92315000D01*
X105272000Y-92455000D02*
X103008000Y-92455000D01*
X104651000Y-92595000D02*
X103629000Y-92595000D01*
X105140000Y-90130000D02*
G75*
G03X105140000Y-90130000I-1000000J0D01*
G01*
X107927500Y-88880000D02*
G75*
G03X107927500Y-88880000I-3787500J0D01*
G01*
X64020000Y-113050000D02*
X68020000Y-113050000D01*
X64020000Y-115550000D02*
X68020000Y-115550000D01*
X71640000Y-113050000D02*
X75640000Y-113050000D01*
X71640000Y-115550000D02*
X75640000Y-115550000D01*
X59745112Y-89154904D02*
G75*
G03X59730000Y-86130000I2484888J1524904D01*
G01*
X59730000Y-89130000D02*
X59730000Y-86130000D01*
X64747936Y-87630000D02*
G75*
G03X64747936Y-87630000I-2517936J0D01*
G01*
X119907214Y-99250000D02*
G75*
G03X119907214Y-99250000I-447214J0D01*
G01*
X129460000Y-92250000D02*
X124460000Y-91250000D01*
X124460000Y-91250000D02*
X119460000Y-90250000D01*
X119460000Y-90250000D02*
X119460000Y-97250000D01*
X119460000Y-97250000D02*
X124460000Y-98250000D01*
X129460000Y-99250000D02*
X124460000Y-98250000D01*
X124460000Y-98250000D02*
X124460000Y-91250000D01*
X129460000Y-92250000D02*
X129460000Y-99250000D01*
X114860000Y-101550000D02*
X114860000Y-88950000D01*
X130160000Y-88950000D02*
X118760000Y-88950000D01*
X130160000Y-101550000D02*
X118760000Y-101550000D01*
X134060000Y-88950000D02*
X134060000Y-101550000D01*
X119907214Y-113220000D02*
G75*
G03X119907214Y-113220000I-447214J0D01*
G01*
X129460000Y-106220000D02*
X124460000Y-105220000D01*
X124460000Y-105220000D02*
X119460000Y-104220000D01*
X119460000Y-104220000D02*
X119460000Y-111220000D01*
X119460000Y-111220000D02*
X124460000Y-112220000D01*
X129460000Y-113220000D02*
X124460000Y-112220000D01*
X124460000Y-112220000D02*
X124460000Y-105220000D01*
X129460000Y-106220000D02*
X129460000Y-113220000D01*
X114860000Y-115520000D02*
X114860000Y-102920000D01*
X130160000Y-102920000D02*
X118760000Y-102920000D01*
X130160000Y-115520000D02*
X118760000Y-115520000D01*
X134060000Y-102920000D02*
X134060000Y-115520000D01*
D13*
X64262000Y-94488000D02*
X88900000Y-94488000D01*
X88900000Y-94488000D02*
X88900000Y-108712000D01*
X88900000Y-108712000D02*
X64262000Y-108712000D01*
X64262000Y-108712000D02*
X64262000Y-94488000D01*
D14*
X67310000Y-96520000D02*
X64770000Y-96520000D01*
X64770000Y-96520000D02*
X64770000Y-99060000D01*
X64770000Y-99060000D02*
X64770000Y-106680000D01*
X64770000Y-106680000D02*
X69850000Y-106680000D01*
X69850000Y-106680000D02*
X69850000Y-96520000D01*
X69850000Y-96520000D02*
X67310000Y-96520000D01*
D12*
X100085000Y-124595000D02*
X98815000Y-124595000D01*
X100085000Y-131945000D02*
X98815000Y-131945000D01*
X62475000Y-131945000D02*
X63745000Y-131945000D01*
X62475000Y-124595000D02*
X63745000Y-124595000D01*
X100085000Y-124595000D02*
X100085000Y-131945000D01*
X62475000Y-124595000D02*
X62475000Y-131945000D01*
X98815000Y-124595000D02*
X98815000Y-123660000D01*
X68580000Y-86995000D02*
X68580000Y-88900000D01*
X68580000Y-88900000D02*
X76200000Y-88900000D01*
X76200000Y-88900000D02*
X76200000Y-86360000D01*
X76200000Y-86360000D02*
X68580000Y-86360000D01*
X68580000Y-86360000D02*
X68580000Y-86995000D01*
X67945000Y-87630000D02*
X68580000Y-87630000D01*
X76200000Y-87630000D02*
X76835000Y-87630000D01*
X68580000Y-86995000D02*
X69215000Y-86360000D01*
X98425000Y-97790000D02*
X96520000Y-97790000D01*
X96520000Y-97790000D02*
X96520000Y-105410000D01*
X96520000Y-105410000D02*
X99060000Y-105410000D01*
X99060000Y-105410000D02*
X99060000Y-97790000D01*
X99060000Y-97790000D02*
X98425000Y-97790000D01*
X97790000Y-97155000D02*
X97790000Y-97790000D01*
X97790000Y-105410000D02*
X97790000Y-106045000D01*
X98425000Y-97790000D02*
X99060000Y-98425000D01*
X136525000Y-99060000D02*
X138430000Y-99060000D01*
X138430000Y-99060000D02*
X138430000Y-91440000D01*
X138430000Y-91440000D02*
X135890000Y-91440000D01*
X135890000Y-91440000D02*
X135890000Y-99060000D01*
X135890000Y-99060000D02*
X136525000Y-99060000D01*
X137160000Y-99695000D02*
X137160000Y-99060000D01*
X137160000Y-91440000D02*
X137160000Y-90805000D01*
X136525000Y-99060000D02*
X135890000Y-98425000D01*
X112395000Y-91440000D02*
X110490000Y-91440000D01*
X110490000Y-91440000D02*
X110490000Y-99060000D01*
X110490000Y-99060000D02*
X113030000Y-99060000D01*
X113030000Y-99060000D02*
X113030000Y-91440000D01*
X113030000Y-91440000D02*
X112395000Y-91440000D01*
X111760000Y-90805000D02*
X111760000Y-91440000D01*
X111760000Y-99060000D02*
X111760000Y-99695000D01*
X112395000Y-91440000D02*
X113030000Y-92075000D01*
X111125000Y-113030000D02*
X113030000Y-113030000D01*
X113030000Y-113030000D02*
X113030000Y-105410000D01*
X113030000Y-105410000D02*
X110490000Y-105410000D01*
X110490000Y-105410000D02*
X110490000Y-113030000D01*
X110490000Y-113030000D02*
X111125000Y-113030000D01*
X111760000Y-113665000D02*
X111760000Y-113030000D01*
X111760000Y-105410000D02*
X111760000Y-104775000D01*
X111125000Y-113030000D02*
X110490000Y-112395000D01*
X137795000Y-105410000D02*
X135890000Y-105410000D01*
X135890000Y-105410000D02*
X135890000Y-113030000D01*
X135890000Y-113030000D02*
X138430000Y-113030000D01*
X138430000Y-113030000D02*
X138430000Y-105410000D01*
X138430000Y-105410000D02*
X137795000Y-105410000D01*
X137160000Y-104775000D02*
X137160000Y-105410000D01*
X137160000Y-113030000D02*
X137160000Y-113665000D01*
X137795000Y-105410000D02*
X138430000Y-106045000D01*
X93345000Y-105410000D02*
X95250000Y-105410000D01*
X95250000Y-105410000D02*
X95250000Y-97790000D01*
X95250000Y-97790000D02*
X92710000Y-97790000D01*
X92710000Y-97790000D02*
X92710000Y-105410000D01*
X92710000Y-105410000D02*
X93345000Y-105410000D01*
X93980000Y-106045000D02*
X93980000Y-105410000D01*
X93980000Y-97790000D02*
X93980000Y-97155000D01*
X93345000Y-105410000D02*
X92710000Y-104775000D01*
X61595000Y-97790000D02*
X59690000Y-97790000D01*
X59690000Y-97790000D02*
X59690000Y-105410000D01*
X59690000Y-105410000D02*
X62230000Y-105410000D01*
X62230000Y-105410000D02*
X62230000Y-97790000D01*
X62230000Y-97790000D02*
X61595000Y-97790000D01*
X60960000Y-97155000D02*
X60960000Y-97790000D01*
X60960000Y-105410000D02*
X60960000Y-106045000D01*
X61595000Y-97790000D02*
X62230000Y-98425000D01*
X135645000Y-75065000D02*
X134375000Y-75065000D01*
X135645000Y-82415000D02*
X134375000Y-82415000D01*
X113275000Y-82415000D02*
X114545000Y-82415000D01*
X113275000Y-75065000D02*
X114545000Y-75065000D01*
X135645000Y-75065000D02*
X135645000Y-82415000D01*
X113275000Y-75065000D02*
X113275000Y-82415000D01*
X134375000Y-75065000D02*
X134375000Y-74130000D01*
X135645000Y-122055000D02*
X134375000Y-122055000D01*
X135645000Y-129405000D02*
X134375000Y-129405000D01*
X113275000Y-129405000D02*
X114545000Y-129405000D01*
X113275000Y-122055000D02*
X114545000Y-122055000D01*
X135645000Y-122055000D02*
X135645000Y-129405000D01*
X113275000Y-122055000D02*
X113275000Y-129405000D01*
X134375000Y-122055000D02*
X134375000Y-121120000D01*
X91440000Y-121285000D02*
X91440000Y-109855000D01*
X91440000Y-109855000D02*
X92075000Y-109220000D01*
X92075000Y-109220000D02*
X103505000Y-109220000D01*
X103505000Y-109220000D02*
X104140000Y-109855000D01*
X104140000Y-109855000D02*
X104140000Y-121285000D01*
X103505000Y-121920000D02*
X92075000Y-121920000D01*
X92075000Y-121920000D02*
X91440000Y-121285000D01*
X104140000Y-121285000D02*
X103505000Y-121920000D01*
X66421000Y-120380760D02*
X66220340Y-119979440D01*
X66220340Y-119979440D02*
X66118740Y-119380000D01*
X66118740Y-119380000D02*
X66220340Y-118879620D01*
X66220340Y-118879620D02*
X66619120Y-118181120D01*
X66619120Y-118181120D02*
X67221100Y-117779800D01*
X67221100Y-117779800D02*
X67820540Y-117579140D01*
X67820540Y-117579140D02*
X74419460Y-117579140D01*
X74419460Y-117579140D02*
X75120500Y-117779800D01*
X75120500Y-117779800D02*
X75519280Y-118079520D01*
X75519280Y-118079520D02*
X75920600Y-118579900D01*
X75920600Y-118579900D02*
X76121260Y-119179340D01*
X76121260Y-119179340D02*
X76121260Y-119679720D01*
X76121260Y-119679720D02*
X75920600Y-120180100D01*
X75920600Y-120180100D02*
X75420220Y-120779540D01*
X75420220Y-120779540D02*
X74919840Y-121079260D01*
X74919840Y-121079260D02*
X74419460Y-121180860D01*
X74320400Y-121180860D02*
X67718940Y-121180860D01*
X67718940Y-121180860D02*
X67320160Y-121079260D01*
X67320160Y-121079260D02*
X66819780Y-120779540D01*
X66819780Y-120779540D02*
X66319400Y-120279160D01*
X74310240Y-121709180D02*
X74769980Y-121660920D01*
X74769980Y-121660920D02*
X75168760Y-121549160D01*
X75168760Y-121549160D02*
X75600560Y-121330720D01*
X75600560Y-121330720D02*
X75890120Y-121099580D01*
X75890120Y-121099580D02*
X76220320Y-120749060D01*
X76220320Y-120749060D02*
X76509880Y-120210580D01*
X76509880Y-120210580D02*
X76639420Y-119611140D01*
X76639420Y-119611140D02*
X76639420Y-119100600D01*
X76639420Y-119100600D02*
X76469240Y-118399560D01*
X76469240Y-118399560D02*
X76070460Y-117810280D01*
X76070460Y-117810280D02*
X75610720Y-117439440D01*
X75610720Y-117439440D02*
X75189080Y-117231160D01*
X75189080Y-117231160D02*
X74739500Y-117071140D01*
X74739500Y-117071140D02*
X74300080Y-117040660D01*
X66959480Y-117259100D02*
X66581020Y-117480080D01*
X66581020Y-117480080D02*
X66260980Y-117759480D01*
X66260980Y-117759480D02*
X66009520Y-118089680D01*
X66009520Y-118089680D02*
X65709800Y-118640860D01*
X65709800Y-118640860D02*
X65600580Y-119110760D01*
X65600580Y-119110760D02*
X65580260Y-119570500D01*
X65580260Y-119570500D02*
X65669160Y-120030240D01*
X65669160Y-120030240D02*
X65859660Y-120479820D01*
X65859660Y-120479820D02*
X66220340Y-120949720D01*
X66220340Y-120949720D02*
X66570860Y-121269760D01*
X66570860Y-121269760D02*
X66959480Y-121500900D01*
X66959480Y-121500900D02*
X67388740Y-121640600D01*
X67388740Y-121640600D02*
X67830700Y-121709180D01*
X74320400Y-117050820D02*
X67868800Y-117050820D01*
X67868800Y-117050820D02*
X67449700Y-117088920D01*
X67449700Y-117088920D02*
X66959480Y-117259100D01*
X74320400Y-121709180D02*
X67868800Y-121709180D01*
X97242381Y-79970000D02*
X97242381Y-80446191D01*
X97718571Y-80493810D01*
X97670952Y-80446191D01*
X97623333Y-80350953D01*
X97623333Y-80112857D01*
X97670952Y-80017619D01*
X97718571Y-79970000D01*
X97813810Y-79922381D01*
X98051905Y-79922381D01*
X98147143Y-79970000D01*
X98194762Y-80017619D01*
X98242381Y-80112857D01*
X98242381Y-80350953D01*
X98194762Y-80446191D01*
X98147143Y-80493810D01*
X97242381Y-79636667D02*
X98242381Y-79303334D01*
X97242381Y-78970000D01*
X98337619Y-78874762D02*
X98337619Y-78112857D01*
X98242381Y-77303333D02*
X97766190Y-77636667D01*
X98242381Y-77874762D02*
X97242381Y-77874762D01*
X97242381Y-77493809D01*
X97290000Y-77398571D01*
X97337619Y-77350952D01*
X97432857Y-77303333D01*
X97575714Y-77303333D01*
X97670952Y-77350952D01*
X97718571Y-77398571D01*
X97766190Y-77493809D01*
X97766190Y-77874762D01*
X97718571Y-76874762D02*
X97718571Y-76541428D01*
X98242381Y-76398571D02*
X98242381Y-76874762D01*
X97242381Y-76874762D01*
X97242381Y-76398571D01*
X97290000Y-75446190D02*
X97242381Y-75541428D01*
X97242381Y-75684285D01*
X97290000Y-75827143D01*
X97385238Y-75922381D01*
X97480476Y-75970000D01*
X97670952Y-76017619D01*
X97813810Y-76017619D01*
X98004286Y-75970000D01*
X98099524Y-75922381D01*
X98194762Y-75827143D01*
X98242381Y-75684285D01*
X98242381Y-75589047D01*
X98194762Y-75446190D01*
X98147143Y-75398571D01*
X97813810Y-75398571D01*
X97813810Y-75589047D01*
X98242381Y-74446190D02*
X98242381Y-75017619D01*
X98242381Y-74731905D02*
X97242381Y-74731905D01*
X97385238Y-74827143D01*
X97480476Y-74922381D01*
X97528095Y-75017619D01*
X108672381Y-81017619D02*
X108672381Y-80398571D01*
X109053333Y-80731905D01*
X109053333Y-80589047D01*
X109100952Y-80493809D01*
X109148571Y-80446190D01*
X109243810Y-80398571D01*
X109481905Y-80398571D01*
X109577143Y-80446190D01*
X109624762Y-80493809D01*
X109672381Y-80589047D01*
X109672381Y-80874762D01*
X109624762Y-80970000D01*
X109577143Y-81017619D01*
X108672381Y-80065238D02*
X108672381Y-79446190D01*
X109053333Y-79779524D01*
X109053333Y-79636666D01*
X109100952Y-79541428D01*
X109148571Y-79493809D01*
X109243810Y-79446190D01*
X109481905Y-79446190D01*
X109577143Y-79493809D01*
X109624762Y-79541428D01*
X109672381Y-79636666D01*
X109672381Y-79922381D01*
X109624762Y-80017619D01*
X109577143Y-80065238D01*
X108672381Y-79160476D02*
X109672381Y-78827143D01*
X108672381Y-78493809D01*
X109767619Y-78398571D02*
X109767619Y-77636666D01*
X109672381Y-76827142D02*
X109196190Y-77160476D01*
X109672381Y-77398571D02*
X108672381Y-77398571D01*
X108672381Y-77017618D01*
X108720000Y-76922380D01*
X108767619Y-76874761D01*
X108862857Y-76827142D01*
X109005714Y-76827142D01*
X109100952Y-76874761D01*
X109148571Y-76922380D01*
X109196190Y-77017618D01*
X109196190Y-77398571D01*
X109148571Y-76398571D02*
X109148571Y-76065237D01*
X109672381Y-75922380D02*
X109672381Y-76398571D01*
X108672381Y-76398571D01*
X108672381Y-75922380D01*
X108720000Y-74969999D02*
X108672381Y-75065237D01*
X108672381Y-75208094D01*
X108720000Y-75350952D01*
X108815238Y-75446190D01*
X108910476Y-75493809D01*
X109100952Y-75541428D01*
X109243810Y-75541428D01*
X109434286Y-75493809D01*
X109529524Y-75446190D01*
X109624762Y-75350952D01*
X109672381Y-75208094D01*
X109672381Y-75112856D01*
X109624762Y-74969999D01*
X109577143Y-74922380D01*
X109243810Y-74922380D01*
X109243810Y-75112856D01*
X109672381Y-73969999D02*
X109672381Y-74541428D01*
X109672381Y-74255714D02*
X108672381Y-74255714D01*
X108815238Y-74350952D01*
X108910476Y-74446190D01*
X108958095Y-74541428D01*
X70334286Y-86227611D02*
X70477143Y-86275230D01*
X70524762Y-86322850D01*
X70572381Y-86418088D01*
X70572381Y-86560945D01*
X70524762Y-86656183D01*
X70477143Y-86703802D01*
X70381905Y-86751421D01*
X70000952Y-86751421D01*
X70000952Y-85751421D01*
X70334286Y-85751421D01*
X70429524Y-85799040D01*
X70477143Y-85846659D01*
X70524762Y-85941897D01*
X70524762Y-86037135D01*
X70477143Y-86132373D01*
X70429524Y-86179992D01*
X70334286Y-86227611D01*
X70000952Y-86227611D01*
X71286667Y-85751421D02*
X71286667Y-86465707D01*
X71239047Y-86608564D01*
X71143809Y-86703802D01*
X71000952Y-86751421D01*
X70905714Y-86751421D01*
X72286667Y-86751421D02*
X71715238Y-86751421D01*
X72000952Y-86751421D02*
X72000952Y-85751421D01*
X71905714Y-85894278D01*
X71810476Y-85989516D01*
X71715238Y-86037135D01*
X89277143Y-77616666D02*
X89324762Y-77664285D01*
X89372381Y-77807142D01*
X89372381Y-77902380D01*
X89324762Y-78045238D01*
X89229524Y-78140476D01*
X89134286Y-78188095D01*
X88943810Y-78235714D01*
X88800952Y-78235714D01*
X88610476Y-78188095D01*
X88515238Y-78140476D01*
X88420000Y-78045238D01*
X88372381Y-77902380D01*
X88372381Y-77807142D01*
X88420000Y-77664285D01*
X88467619Y-77616666D01*
X89372381Y-76664285D02*
X89372381Y-77235714D01*
X89372381Y-76950000D02*
X88372381Y-76950000D01*
X88515238Y-77045238D01*
X88610476Y-77140476D01*
X88658095Y-77235714D01*
X89277143Y-87776666D02*
X89324762Y-87824285D01*
X89372381Y-87967142D01*
X89372381Y-88062380D01*
X89324762Y-88205238D01*
X89229524Y-88300476D01*
X89134286Y-88348095D01*
X88943810Y-88395714D01*
X88800952Y-88395714D01*
X88610476Y-88348095D01*
X88515238Y-88300476D01*
X88420000Y-88205238D01*
X88372381Y-88062380D01*
X88372381Y-87967142D01*
X88420000Y-87824285D01*
X88467619Y-87776666D01*
X88467619Y-87395714D02*
X88420000Y-87348095D01*
X88372381Y-87252857D01*
X88372381Y-87014761D01*
X88420000Y-86919523D01*
X88467619Y-86871904D01*
X88562857Y-86824285D01*
X88658095Y-86824285D01*
X88800952Y-86871904D01*
X89372381Y-87443333D01*
X89372381Y-86824285D01*
X93793334Y-85487143D02*
X93745715Y-85534762D01*
X93602858Y-85582381D01*
X93507620Y-85582381D01*
X93364762Y-85534762D01*
X93269524Y-85439524D01*
X93221905Y-85344286D01*
X93174286Y-85153810D01*
X93174286Y-85010952D01*
X93221905Y-84820476D01*
X93269524Y-84725238D01*
X93364762Y-84630000D01*
X93507620Y-84582381D01*
X93602858Y-84582381D01*
X93745715Y-84630000D01*
X93793334Y-84677619D01*
X94126667Y-84582381D02*
X94745715Y-84582381D01*
X94412381Y-84963333D01*
X94555239Y-84963333D01*
X94650477Y-85010952D01*
X94698096Y-85058571D01*
X94745715Y-85153810D01*
X94745715Y-85391905D01*
X94698096Y-85487143D01*
X94650477Y-85534762D01*
X94555239Y-85582381D01*
X94269524Y-85582381D01*
X94174286Y-85534762D01*
X94126667Y-85487143D01*
X109597143Y-89046666D02*
X109644762Y-89094285D01*
X109692381Y-89237142D01*
X109692381Y-89332380D01*
X109644762Y-89475238D01*
X109549524Y-89570476D01*
X109454286Y-89618095D01*
X109263810Y-89665714D01*
X109120952Y-89665714D01*
X108930476Y-89618095D01*
X108835238Y-89570476D01*
X108740000Y-89475238D01*
X108692381Y-89332380D01*
X108692381Y-89237142D01*
X108740000Y-89094285D01*
X108787619Y-89046666D01*
X109025714Y-88189523D02*
X109692381Y-88189523D01*
X108644762Y-88427619D02*
X109359048Y-88665714D01*
X109359048Y-88046666D01*
X65853334Y-112157143D02*
X65805715Y-112204762D01*
X65662858Y-112252381D01*
X65567620Y-112252381D01*
X65424762Y-112204762D01*
X65329524Y-112109524D01*
X65281905Y-112014286D01*
X65234286Y-111823810D01*
X65234286Y-111680952D01*
X65281905Y-111490476D01*
X65329524Y-111395238D01*
X65424762Y-111300000D01*
X65567620Y-111252381D01*
X65662858Y-111252381D01*
X65805715Y-111300000D01*
X65853334Y-111347619D01*
X66758096Y-111252381D02*
X66281905Y-111252381D01*
X66234286Y-111728571D01*
X66281905Y-111680952D01*
X66377143Y-111633333D01*
X66615239Y-111633333D01*
X66710477Y-111680952D01*
X66758096Y-111728571D01*
X66805715Y-111823810D01*
X66805715Y-112061905D01*
X66758096Y-112157143D01*
X66710477Y-112204762D01*
X66615239Y-112252381D01*
X66377143Y-112252381D01*
X66281905Y-112204762D01*
X66234286Y-112157143D01*
X73473334Y-112157143D02*
X73425715Y-112204762D01*
X73282858Y-112252381D01*
X73187620Y-112252381D01*
X73044762Y-112204762D01*
X72949524Y-112109524D01*
X72901905Y-112014286D01*
X72854286Y-111823810D01*
X72854286Y-111680952D01*
X72901905Y-111490476D01*
X72949524Y-111395238D01*
X73044762Y-111300000D01*
X73187620Y-111252381D01*
X73282858Y-111252381D01*
X73425715Y-111300000D01*
X73473334Y-111347619D01*
X74330477Y-111252381D02*
X74140000Y-111252381D01*
X74044762Y-111300000D01*
X73997143Y-111347619D01*
X73901905Y-111490476D01*
X73854286Y-111680952D01*
X73854286Y-112061905D01*
X73901905Y-112157143D01*
X73949524Y-112204762D01*
X74044762Y-112252381D01*
X74235239Y-112252381D01*
X74330477Y-112204762D01*
X74378096Y-112157143D01*
X74425715Y-112061905D01*
X74425715Y-111823810D01*
X74378096Y-111728571D01*
X74330477Y-111680952D01*
X74235239Y-111633333D01*
X74044762Y-111633333D01*
X73949524Y-111680952D01*
X73901905Y-111728571D01*
X73854286Y-111823810D01*
X61745905Y-92146381D02*
X61745905Y-91146381D01*
X61984000Y-91146381D01*
X62126858Y-91194000D01*
X62222096Y-91289238D01*
X62269715Y-91384476D01*
X62317334Y-91574952D01*
X62317334Y-91717810D01*
X62269715Y-91908286D01*
X62222096Y-92003524D01*
X62126858Y-92098762D01*
X61984000Y-92146381D01*
X61745905Y-92146381D01*
X63269715Y-92146381D02*
X62698286Y-92146381D01*
X62984000Y-92146381D02*
X62984000Y-91146381D01*
X62888762Y-91289238D01*
X62793524Y-91384476D01*
X62698286Y-91432095D01*
X58793095Y-89987381D02*
X58793095Y-88987381D01*
X59364524Y-89987381D02*
X58935952Y-89415952D01*
X59364524Y-88987381D02*
X58793095Y-89558810D01*
X131262381Y-87836190D02*
X130262381Y-87836190D01*
X130262381Y-87598095D01*
X130310000Y-87455237D01*
X130405238Y-87359999D01*
X130500476Y-87312380D01*
X130690952Y-87264761D01*
X130833810Y-87264761D01*
X131024286Y-87312380D01*
X131119524Y-87359999D01*
X131214762Y-87455237D01*
X131262381Y-87598095D01*
X131262381Y-87836190D01*
X131262381Y-86836190D02*
X130262381Y-86836190D01*
X130310000Y-85836190D02*
X130262381Y-85931428D01*
X130262381Y-86074285D01*
X130310000Y-86217143D01*
X130405238Y-86312381D01*
X130500476Y-86360000D01*
X130690952Y-86407619D01*
X130833810Y-86407619D01*
X131024286Y-86360000D01*
X131119524Y-86312381D01*
X131214762Y-86217143D01*
X131262381Y-86074285D01*
X131262381Y-85979047D01*
X131214762Y-85836190D01*
X131167143Y-85788571D01*
X130833810Y-85788571D01*
X130833810Y-85979047D01*
X131262381Y-84836190D02*
X131262381Y-85407619D01*
X131262381Y-85121905D02*
X130262381Y-85121905D01*
X130405238Y-85217143D01*
X130500476Y-85312381D01*
X130548095Y-85407619D01*
X131262381Y-119586190D02*
X130262381Y-119586190D01*
X130262381Y-119348095D01*
X130310000Y-119205237D01*
X130405238Y-119109999D01*
X130500476Y-119062380D01*
X130690952Y-119014761D01*
X130833810Y-119014761D01*
X131024286Y-119062380D01*
X131119524Y-119109999D01*
X131214762Y-119205237D01*
X131262381Y-119348095D01*
X131262381Y-119586190D01*
X131262381Y-118586190D02*
X130262381Y-118586190D01*
X130310000Y-117586190D02*
X130262381Y-117681428D01*
X130262381Y-117824285D01*
X130310000Y-117967143D01*
X130405238Y-118062381D01*
X130500476Y-118110000D01*
X130690952Y-118157619D01*
X130833810Y-118157619D01*
X131024286Y-118110000D01*
X131119524Y-118062381D01*
X131214762Y-117967143D01*
X131262381Y-117824285D01*
X131262381Y-117729047D01*
X131214762Y-117586190D01*
X131167143Y-117538571D01*
X130833810Y-117538571D01*
X130833810Y-117729047D01*
X130357619Y-117157619D02*
X130310000Y-117110000D01*
X130262381Y-117014762D01*
X130262381Y-116776666D01*
X130310000Y-116681428D01*
X130357619Y-116633809D01*
X130452857Y-116586190D01*
X130548095Y-116586190D01*
X130690952Y-116633809D01*
X131262381Y-117205238D01*
X131262381Y-116586190D01*
X64627333Y-93146571D02*
X64960667Y-93146571D01*
X65103524Y-93670381D02*
X64627333Y-93670381D01*
X64627333Y-92670381D01*
X65103524Y-92670381D01*
X65484476Y-93622762D02*
X65627333Y-93670381D01*
X65865429Y-93670381D01*
X65960667Y-93622762D01*
X66008286Y-93575143D01*
X66055905Y-93479905D01*
X66055905Y-93384667D01*
X66008286Y-93289429D01*
X65960667Y-93241810D01*
X65865429Y-93194190D01*
X65674952Y-93146571D01*
X65579714Y-93098952D01*
X65532095Y-93051333D01*
X65484476Y-92956095D01*
X65484476Y-92860857D01*
X65532095Y-92765619D01*
X65579714Y-92718000D01*
X65674952Y-92670381D01*
X65913048Y-92670381D01*
X66055905Y-92718000D01*
X66484476Y-93670381D02*
X66484476Y-92670381D01*
X66865429Y-92670381D01*
X66960667Y-92718000D01*
X67008286Y-92765619D01*
X67055905Y-92860857D01*
X67055905Y-93003714D01*
X67008286Y-93098952D01*
X66960667Y-93146571D01*
X66865429Y-93194190D01*
X66484476Y-93194190D01*
X68008286Y-93670381D02*
X67436857Y-93670381D01*
X67722571Y-93670381D02*
X67722571Y-92670381D01*
X67627333Y-92813238D01*
X67532095Y-92908476D01*
X67436857Y-92956095D01*
X103462381Y-125436190D02*
X102462381Y-125436190D01*
X103367143Y-124388571D02*
X103414762Y-124436190D01*
X103462381Y-124579047D01*
X103462381Y-124674285D01*
X103414762Y-124817143D01*
X103319524Y-124912381D01*
X103224286Y-124960000D01*
X103033810Y-125007619D01*
X102890952Y-125007619D01*
X102700476Y-124960000D01*
X102605238Y-124912381D01*
X102510000Y-124817143D01*
X102462381Y-124674285D01*
X102462381Y-124579047D01*
X102510000Y-124436190D01*
X102557619Y-124388571D01*
X103462381Y-123436190D02*
X103462381Y-124007619D01*
X103462381Y-123721905D02*
X102462381Y-123721905D01*
X102605238Y-123817143D01*
X102700476Y-123912381D01*
X102748095Y-124007619D01*
X72223334Y-88082381D02*
X71890000Y-87606190D01*
X71651905Y-88082381D02*
X71651905Y-87082381D01*
X72032858Y-87082381D01*
X72128096Y-87130000D01*
X72175715Y-87177619D01*
X72223334Y-87272857D01*
X72223334Y-87415714D01*
X72175715Y-87510952D01*
X72128096Y-87558571D01*
X72032858Y-87606190D01*
X71651905Y-87606190D01*
X73175715Y-88082381D02*
X72604286Y-88082381D01*
X72890000Y-88082381D02*
X72890000Y-87082381D01*
X72794762Y-87225238D01*
X72699524Y-87320476D01*
X72604286Y-87368095D01*
X98242381Y-101766666D02*
X97766190Y-102100000D01*
X98242381Y-102338095D02*
X97242381Y-102338095D01*
X97242381Y-101957142D01*
X97290000Y-101861904D01*
X97337619Y-101814285D01*
X97432857Y-101766666D01*
X97575714Y-101766666D01*
X97670952Y-101814285D01*
X97718571Y-101861904D01*
X97766190Y-101957142D01*
X97766190Y-102338095D01*
X97337619Y-101385714D02*
X97290000Y-101338095D01*
X97242381Y-101242857D01*
X97242381Y-101004761D01*
X97290000Y-100909523D01*
X97337619Y-100861904D01*
X97432857Y-100814285D01*
X97528095Y-100814285D01*
X97670952Y-100861904D01*
X98242381Y-101433333D01*
X98242381Y-100814285D01*
X137612381Y-95416666D02*
X137136190Y-95750000D01*
X137612381Y-95988095D02*
X136612381Y-95988095D01*
X136612381Y-95607142D01*
X136660000Y-95511904D01*
X136707619Y-95464285D01*
X136802857Y-95416666D01*
X136945714Y-95416666D01*
X137040952Y-95464285D01*
X137088571Y-95511904D01*
X137136190Y-95607142D01*
X137136190Y-95988095D01*
X136612381Y-95083333D02*
X136612381Y-94464285D01*
X136993333Y-94797619D01*
X136993333Y-94654761D01*
X137040952Y-94559523D01*
X137088571Y-94511904D01*
X137183810Y-94464285D01*
X137421905Y-94464285D01*
X137517143Y-94511904D01*
X137564762Y-94559523D01*
X137612381Y-94654761D01*
X137612381Y-94940476D01*
X137564762Y-95035714D01*
X137517143Y-95083333D01*
X112212381Y-95416666D02*
X111736190Y-95750000D01*
X112212381Y-95988095D02*
X111212381Y-95988095D01*
X111212381Y-95607142D01*
X111260000Y-95511904D01*
X111307619Y-95464285D01*
X111402857Y-95416666D01*
X111545714Y-95416666D01*
X111640952Y-95464285D01*
X111688571Y-95511904D01*
X111736190Y-95607142D01*
X111736190Y-95988095D01*
X111545714Y-94559523D02*
X112212381Y-94559523D01*
X111164762Y-94797619D02*
X111879048Y-95035714D01*
X111879048Y-94416666D01*
X112212381Y-109386666D02*
X111736190Y-109720000D01*
X112212381Y-109958095D02*
X111212381Y-109958095D01*
X111212381Y-109577142D01*
X111260000Y-109481904D01*
X111307619Y-109434285D01*
X111402857Y-109386666D01*
X111545714Y-109386666D01*
X111640952Y-109434285D01*
X111688571Y-109481904D01*
X111736190Y-109577142D01*
X111736190Y-109958095D01*
X111212381Y-108481904D02*
X111212381Y-108958095D01*
X111688571Y-109005714D01*
X111640952Y-108958095D01*
X111593333Y-108862857D01*
X111593333Y-108624761D01*
X111640952Y-108529523D01*
X111688571Y-108481904D01*
X111783810Y-108434285D01*
X112021905Y-108434285D01*
X112117143Y-108481904D01*
X112164762Y-108529523D01*
X112212381Y-108624761D01*
X112212381Y-108862857D01*
X112164762Y-108958095D01*
X112117143Y-109005714D01*
X137612381Y-109386666D02*
X137136190Y-109720000D01*
X137612381Y-109958095D02*
X136612381Y-109958095D01*
X136612381Y-109577142D01*
X136660000Y-109481904D01*
X136707619Y-109434285D01*
X136802857Y-109386666D01*
X136945714Y-109386666D01*
X137040952Y-109434285D01*
X137088571Y-109481904D01*
X137136190Y-109577142D01*
X137136190Y-109958095D01*
X136612381Y-108529523D02*
X136612381Y-108720000D01*
X136660000Y-108815238D01*
X136707619Y-108862857D01*
X136850476Y-108958095D01*
X137040952Y-109005714D01*
X137421905Y-109005714D01*
X137517143Y-108958095D01*
X137564762Y-108910476D01*
X137612381Y-108815238D01*
X137612381Y-108624761D01*
X137564762Y-108529523D01*
X137517143Y-108481904D01*
X137421905Y-108434285D01*
X137183810Y-108434285D01*
X137088571Y-108481904D01*
X137040952Y-108529523D01*
X136993333Y-108624761D01*
X136993333Y-108815238D01*
X137040952Y-108910476D01*
X137088571Y-108958095D01*
X137183810Y-109005714D01*
X94432381Y-101766666D02*
X93956190Y-102100000D01*
X94432381Y-102338095D02*
X93432381Y-102338095D01*
X93432381Y-101957142D01*
X93480000Y-101861904D01*
X93527619Y-101814285D01*
X93622857Y-101766666D01*
X93765714Y-101766666D01*
X93860952Y-101814285D01*
X93908571Y-101861904D01*
X93956190Y-101957142D01*
X93956190Y-102338095D01*
X93432381Y-101433333D02*
X93432381Y-100766666D01*
X94432381Y-101195238D01*
X61412381Y-101766666D02*
X60936190Y-102100000D01*
X61412381Y-102338095D02*
X60412381Y-102338095D01*
X60412381Y-101957142D01*
X60460000Y-101861904D01*
X60507619Y-101814285D01*
X60602857Y-101766666D01*
X60745714Y-101766666D01*
X60840952Y-101814285D01*
X60888571Y-101861904D01*
X60936190Y-101957142D01*
X60936190Y-102338095D01*
X60840952Y-101195238D02*
X60793333Y-101290476D01*
X60745714Y-101338095D01*
X60650476Y-101385714D01*
X60602857Y-101385714D01*
X60507619Y-101338095D01*
X60460000Y-101290476D01*
X60412381Y-101195238D01*
X60412381Y-101004761D01*
X60460000Y-100909523D01*
X60507619Y-100861904D01*
X60602857Y-100814285D01*
X60650476Y-100814285D01*
X60745714Y-100861904D01*
X60793333Y-100909523D01*
X60840952Y-101004761D01*
X60840952Y-101195238D01*
X60888571Y-101290476D01*
X60936190Y-101338095D01*
X61031429Y-101385714D01*
X61221905Y-101385714D01*
X61317143Y-101338095D01*
X61364762Y-101290476D01*
X61412381Y-101195238D01*
X61412381Y-101004761D01*
X61364762Y-100909523D01*
X61317143Y-100861904D01*
X61221905Y-100814285D01*
X61031429Y-100814285D01*
X60936190Y-100861904D01*
X60888571Y-100909523D01*
X60840952Y-101004761D01*
X138974762Y-76191905D02*
X139022381Y-76049048D01*
X139022381Y-75810952D01*
X138974762Y-75715714D01*
X138927143Y-75668095D01*
X138831905Y-75620476D01*
X138736667Y-75620476D01*
X138641429Y-75668095D01*
X138593810Y-75715714D01*
X138546190Y-75810952D01*
X138498571Y-76001429D01*
X138450952Y-76096667D01*
X138403333Y-76144286D01*
X138308095Y-76191905D01*
X138212857Y-76191905D01*
X138117619Y-76144286D01*
X138070000Y-76096667D01*
X138022381Y-76001429D01*
X138022381Y-75763333D01*
X138070000Y-75620476D01*
X139022381Y-74620476D02*
X138546190Y-74953810D01*
X139022381Y-75191905D02*
X138022381Y-75191905D01*
X138022381Y-74810952D01*
X138070000Y-74715714D01*
X138117619Y-74668095D01*
X138212857Y-74620476D01*
X138355714Y-74620476D01*
X138450952Y-74668095D01*
X138498571Y-74715714D01*
X138546190Y-74810952D01*
X138546190Y-75191905D01*
X139022381Y-73668095D02*
X139022381Y-74239524D01*
X139022381Y-73953810D02*
X138022381Y-73953810D01*
X138165238Y-74049048D01*
X138260476Y-74144286D01*
X138308095Y-74239524D01*
X138974762Y-123181905D02*
X139022381Y-123039048D01*
X139022381Y-122800952D01*
X138974762Y-122705714D01*
X138927143Y-122658095D01*
X138831905Y-122610476D01*
X138736667Y-122610476D01*
X138641429Y-122658095D01*
X138593810Y-122705714D01*
X138546190Y-122800952D01*
X138498571Y-122991429D01*
X138450952Y-123086667D01*
X138403333Y-123134286D01*
X138308095Y-123181905D01*
X138212857Y-123181905D01*
X138117619Y-123134286D01*
X138070000Y-123086667D01*
X138022381Y-122991429D01*
X138022381Y-122753333D01*
X138070000Y-122610476D01*
X139022381Y-121610476D02*
X138546190Y-121943810D01*
X139022381Y-122181905D02*
X138022381Y-122181905D01*
X138022381Y-121800952D01*
X138070000Y-121705714D01*
X138117619Y-121658095D01*
X138212857Y-121610476D01*
X138355714Y-121610476D01*
X138450952Y-121658095D01*
X138498571Y-121705714D01*
X138546190Y-121800952D01*
X138546190Y-122181905D01*
X138117619Y-121229524D02*
X138070000Y-121181905D01*
X138022381Y-121086667D01*
X138022381Y-120848571D01*
X138070000Y-120753333D01*
X138117619Y-120705714D01*
X138212857Y-120658095D01*
X138308095Y-120658095D01*
X138450952Y-120705714D01*
X139022381Y-121277143D01*
X139022381Y-120658095D01*
X95186667Y-121054762D02*
X95329524Y-121102381D01*
X95567620Y-121102381D01*
X95662858Y-121054762D01*
X95710477Y-121007143D01*
X95758096Y-120911905D01*
X95758096Y-120816667D01*
X95710477Y-120721429D01*
X95662858Y-120673810D01*
X95567620Y-120626190D01*
X95377143Y-120578571D01*
X95281905Y-120530952D01*
X95234286Y-120483333D01*
X95186667Y-120388095D01*
X95186667Y-120292857D01*
X95234286Y-120197619D01*
X95281905Y-120150000D01*
X95377143Y-120102381D01*
X95615239Y-120102381D01*
X95758096Y-120150000D01*
X96091429Y-120102381D02*
X96329524Y-121102381D01*
X96520001Y-120388095D01*
X96710477Y-121102381D01*
X96948572Y-120102381D01*
X97853334Y-121102381D02*
X97281905Y-121102381D01*
X97567619Y-121102381D02*
X97567619Y-120102381D01*
X97472381Y-120245238D01*
X97377143Y-120340476D01*
X97281905Y-120388095D01*
X70643809Y-123166190D02*
X70643809Y-123642381D01*
X70310476Y-122642381D02*
X70643809Y-123166190D01*
X70977143Y-122642381D01*
X71834286Y-123642381D02*
X71262857Y-123642381D01*
X71548571Y-123642381D02*
X71548571Y-122642381D01*
X71453333Y-122785238D01*
X71358095Y-122880476D01*
X71262857Y-122928095D01*
%LPC*%
D15*
X92710000Y-77470000D03*
X92710000Y-74930000D03*
X92710000Y-80010000D03*
X104140000Y-77470000D03*
X104140000Y-74930000D03*
X104140000Y-80010000D03*
D16*
X71120000Y-82400140D03*
X71120000Y-76400660D03*
X66421000Y-79400400D03*
D17*
X83820000Y-78700000D03*
D18*
X83820000Y-76200000D03*
D17*
X83820000Y-88860000D03*
D18*
X83820000Y-86360000D03*
D19*
X92710000Y-87630000D03*
D20*
X95210000Y-87630000D03*
D17*
X104140000Y-90130000D03*
D18*
X104140000Y-87630000D03*
D19*
X64770000Y-114300000D03*
D20*
X67270000Y-114300000D03*
D19*
X72390000Y-114300000D03*
D20*
X74890000Y-114300000D03*
D21*
X60960000Y-87630000D03*
D22*
X63500000Y-87630000D03*
D23*
X116840000Y-90170000D03*
X116840000Y-92710000D03*
X116840000Y-95250000D03*
X116840000Y-97790000D03*
X116840000Y-100330000D03*
X132080000Y-100330000D03*
X132080000Y-97790000D03*
X132080000Y-95250000D03*
X132080000Y-92710000D03*
X132080000Y-90170000D03*
X116840000Y-104140000D03*
X116840000Y-106680000D03*
X116840000Y-109220000D03*
X116840000Y-111760000D03*
X116840000Y-114300000D03*
X132080000Y-114300000D03*
X132080000Y-111760000D03*
X132080000Y-109220000D03*
X132080000Y-106680000D03*
X132080000Y-104140000D03*
D24*
X66040000Y-97790000D03*
D25*
X68580000Y-97790000D03*
X66040000Y-100330000D03*
X68580000Y-100330000D03*
X66040000Y-102870000D03*
X68580000Y-102870000D03*
X66040000Y-105410000D03*
X68580000Y-105410000D03*
D26*
X97790000Y-124460000D03*
X95250000Y-124460000D03*
X92710000Y-124460000D03*
X90170000Y-124460000D03*
X87630000Y-124460000D03*
X85090000Y-124460000D03*
X82550000Y-124460000D03*
X80010000Y-124460000D03*
X77470000Y-124460000D03*
X74930000Y-124460000D03*
X72390000Y-124460000D03*
X69850000Y-124460000D03*
X67310000Y-124460000D03*
X64770000Y-124460000D03*
X64770000Y-132080000D03*
X67310000Y-132080000D03*
X69850000Y-132080000D03*
X72390000Y-132080000D03*
X74930000Y-132080000D03*
X77470000Y-132080000D03*
X80010000Y-132080000D03*
X82550000Y-132080000D03*
X85090000Y-132080000D03*
X87630000Y-132080000D03*
X90170000Y-132080000D03*
X92710000Y-132080000D03*
X95250000Y-132080000D03*
X97790000Y-132080000D03*
D27*
X67945000Y-87630000D03*
X76835000Y-87630000D03*
X97790000Y-97155000D03*
X97790000Y-106045000D03*
X137160000Y-99695000D03*
X137160000Y-90805000D03*
X111760000Y-90805000D03*
X111760000Y-99695000D03*
X111760000Y-113665000D03*
X111760000Y-104775000D03*
X137160000Y-104775000D03*
X137160000Y-113665000D03*
X93980000Y-106045000D03*
X93980000Y-97155000D03*
X60960000Y-97155000D03*
X60960000Y-106045000D03*
D26*
X133350000Y-74930000D03*
X130810000Y-74930000D03*
X128270000Y-74930000D03*
X125730000Y-74930000D03*
X123190000Y-74930000D03*
X120650000Y-74930000D03*
X118110000Y-74930000D03*
X115570000Y-74930000D03*
X115570000Y-82550000D03*
X118110000Y-82550000D03*
X120650000Y-82550000D03*
X123190000Y-82550000D03*
X125730000Y-82550000D03*
X128270000Y-82550000D03*
X130810000Y-82550000D03*
X133350000Y-82550000D03*
X133350000Y-121920000D03*
X130810000Y-121920000D03*
X128270000Y-121920000D03*
X125730000Y-121920000D03*
X123190000Y-121920000D03*
X120650000Y-121920000D03*
X118110000Y-121920000D03*
X115570000Y-121920000D03*
X115570000Y-129540000D03*
X118110000Y-129540000D03*
X120650000Y-129540000D03*
X123190000Y-129540000D03*
X125730000Y-129540000D03*
X128270000Y-129540000D03*
X130810000Y-129540000D03*
X133350000Y-129540000D03*
D28*
X102870000Y-118110000D03*
X92710000Y-113030000D03*
D29*
X73560940Y-119380000D03*
X68679060Y-119380000D03*
M02*
